<?xml version="1.0" encoding="utf-8"?>
<!-- Generator: Adobe Illustrator 27.9.0, SVG Export Plug-In . SVG Version: 6.00 Build 0)  -->
<svg version="1.1" id="Layer_1" xmlns="http://www.w3.org/2000/svg" xmlns:xlink="http://www.w3.org/1999/xlink" x="0px" y="0px"
	 viewBox="0 0 316 207" style="enable-background:new 0 0 316 207;" xml:space="preserve">
<g id="ID_00000086667510860369513140000005725404962043328160_">
	<g>
		<path d="M36.33,84.56c0,0.28-0.63,0.56-0.31,0.66C36.33,85.31,36.65,84.74,36.33,84.56z M286.78,98.99l-0.31-60.17
			c-0.21-0.09-0.32-0.28-0.42-0.37c-0.21,0.28-1.15-0.28-0.73-0.47c-0.21,0-0.53,0-0.74,0.19c0.21,0.09,0.32,0.37,0.42,0.75
			c-0.31,0.19-0.73,0.38-0.94,0c0.1-0.28,0.31,0,0.42-0.19c-0.42-0.09-0.11-0.56-0.32-0.56c-0.73,0.19-0.84,0.28-1.57,0
			c-0.21-0.09,0,0.28-0.21,0.28c-0.31-0.28-1.26-0.28-1.36,0.09c0.31,0,0.63,0,0.63,0.28c-0.32,0-0.53,0.19-0.74,0.09
			c-0.1,0-0.1-0.19-0.1-0.38c-1.37,0.38-2.2,1.31-3.46,1.59c-0.11,0.47,0.21,0.66,0,0.84c-0.32,0-0.32-0.28-0.53-0.38
			c0.11,0.38,0.11,0.56-0.21,0.66c-0.63-0.19-1.15,0.28-1.26,0.75c-1.79,0.38-3.36,1.5-4.62,2.53c0.21,0,0.32,0,0.32,0.19
			c-0.74,0.19-1.26,0.56-1.89,0.84v42.45c0,0.09,0.63,0.09,0.52,0.47c-0.1,0.09-0.73-0.09-0.52,0.38c0.1,0.19,0.42-0.19,0.63-0.19
			c0.21,0.09-0.21,0.38,0.1,0.47c0-0.19,0-0.38,0.21-0.47c0.11,0.38,0.21,0.75,0.63,0.84c-0.52,0.28-1.15,0.09-1.57-0.09
			c-0.11,0.56,0,1.22-0.11,1.69l-14.38-5.34c-0.21,0.09-0.21,0.28-0.52,0.19c-0.21-0.09,0.21-0.28-0.11-0.28
			c-0.52-0.19-1.36-0.19-1.57-0.75c-0.42-0.19-1.26-0.28-1.15-0.66c-0.21,0.28-0.74-0.09-0.95-0.19c0.21-0.28,0.63,0.09,0.95,0.19
			c0.31,0,0.42,0.19,0.84,0.19c0.32-0.56,0.53-1.22,1.26-1.41c0-0.56,0.95-1.5,1.58-2.16c-0.11,0-0.21-0.09-0.21-0.28
			c0.21-0.09,0.31-0.19,0.63-0.09c0.52-1.22,1.05-2.44,1.36-3.75c0.1-0.28,0.42,0,0.42-0.28c0.52-1.69,1.26-3.19,2.31-4.5l0.11-25.4
			c-0.42,0.09-0.11,0.66-0.32,0.75c-0.52-0.19-0.63,0.75-0.31,0.94c-0.63,0.09-0.21,0.94-0.42,1.22c-0.21-0.09-0.31-0.47-0.73-0.19
			c0,0.28,0.42,0.47,0.21,0.66c-0.42-0.28-0.21,0.47-0.74,0.28c-0.1,0.56-0.52,0.75-0.31,1.22l-1.26,0.84
			c-0.21-0.84,1.68-1.69,1.05-2.53c0.73-0.09,0.52-1.03,1.05-1.22c0.1,0,0,0.28,0.21,0.28c-0.21-0.38,0.21-0.84,0.31-1.41
			c0.21-0.09,0.32,0.19,0.32-0.09c0.42-0.66,0.63-1.5,1.36-1.87c-0.11-0.19-0.21-0.38-0.11-0.56c0.21,0,0.21,0.28,0.32,0.09
			c-0.42-0.56-1.57-0.19-1.68-0.75c0.73-0.09,2.52,0.84,2.73-0.38c-0.21,0-0.53-0.19-0.32-0.38c0.32,0,0.53,0.28,0.74,0.09
			c0.1-0.38,0.84-0.47,0.63-0.94c0.11,0,0.21,0.09,0.32,0.09c0.1-0.56-0.63-0.56-0.94-0.75c-0.32,0-0.11,0.38-0.42,0.38
			c-0.11-0.09-0.42,0-0.42-0.19s0.42-0.09,0.42-0.28l-7.56-2.53c-0.21-0.09-0.21,0.28-0.42,0.19c-0.21-0.19,0-0.28-0.11-0.38
			c-1.78-0.56-3.36-1.31-4.83-0.94c-0.52,0.66-1.05,1.31-2.31,1.41c0.11,0.37-0.1,0.28-0.31,0.47c0.52,0.38,1.15-0.19,1.47,0.28
			c-0.32,0.38-1.05,0.28-1.58,0.09c-0.52,0.84-2.1,1.22-2.2,2.25c-0.47,0.08-0.85,0.25-1.19,0.46c5.64-14.5,10.41-24.51,13.08-26.21
			c2.26-1.44,3.91,1.01,4.95-0.72c1.25-2.05-4.74-6.1-7.19-6.24c-2.54-0.15-9.68,16.22-18.16,39.32c-0.03,0.08-0.07,0.15-0.09,0.23
			c0,0.01,0,0.01,0,0.02c-4.35,11.88-9.05,25.52-13.66,39.6l-20.25-2.22c0.31,0.28,0.52,0.19,0.42,0.56c0.63,0,0.73,0.09,0.94,0.37
			c-0.1,0.19-0.31,0.19-0.52,0.28l-0.21-0.37c-0.21,0-0.42,0.09-0.53,0c-0.1,0.19,0,0.47-0.21,0.47c-0.31-0.28,0-0.94,0-1.22
			c-1.47-0.38-2.94-0.56-3.99-0.47c-0.11-0.37-0.53-0.47-0.63-0.84c0.94-0.28,1.15,0.28,1.89,0.38c0.1-0.66,0.42-0.56,0.84-0.84
			c0.21,0.28,0.42,0.38,0.73,0.09c0.21,0.09,0,0.38,0.21,0.38c0-0.38,0.31-0.28,0.63-0.38c0-0.19-0.32-0.09-0.21-0.38
			c0-0.19,0.31-0.28,0.31-0.28v-5.9l13.44-0.09c0.11,0-0.31-0.09,0-0.28c0.21,0,0.53-0.19,0.53,0.09c0.1,0.19-0.21,0.09-0.32,0.19
			c0.74,0.19,1.05-0.47,0.74-0.94c0.42-0.28,1.15-0.66,0.94-1.31c0.21-0.09,0.31,0,0.52-0.19c0-0.66,0.11-1.31,0.63-1.69
			c-0.21-0.28-0.31-0.66-0.42-1.03c-0.21,0-0.52-0.09-0.52-0.28c0.63-0.47,0.52-1.41,0.84-2.06c0-0.19-0.21-0.19-0.21-0.47
			c0.21-1.12-0.32-1.5,0.21-2.34c-0.21,0-0.42-0.19-0.32-0.28c0.32-0.09,0.74,0.19,0.53-0.09h-0.21c0.52-0.38,0.63-1.03,0.84-1.5
			c-0.11-0.09-0.32-0.09-0.32-0.28c0.42-0.09,0.21-0.19,0.32-0.38h0.42l-0.21-1.69c-0.32-0.09-0.42,0.19-0.84,0.09
			c-0.21,0,0.1,0.28-0.21,0.28c-0.21-0.19-0.63-0.28-0.84-0.38c-0.11,0.09-0.21,0.19-0.42,0c0.21-0.28,0.21-0.19,0-0.47
			c0.21-0.09,0.42-0.28,0.63-0.09c-0.11,0.09-0.11,0.28-0.21,0.47c0.31-0.47,1.78,0.09,2.1-0.28c-0.42-0.09-0.74-0.28-0.42-0.66
			h-16.58c-0.21,0.09-0.21,0.19-0.42,0.19c-0.21-0.28-0.94-0.09-1.05-0.38c0.11-0.09,0.42-0.09,0.53-0.19l0.1-8.43l17.63,1.41
			c0.84,0.09,1.68,0.09,2.41-0.28c0-0.28-0.42-0.19-0.32-0.47c0.53-0.19,0.53-0.75,0.63-1.31c0.21-0.09,0.53-0.09,0.63-0.19
			c0-0.37,0-0.66-0.1-0.94c0.21,0,0.63,0.09,0.63-0.19c-0.11-0.28-0.53,0.09-0.53-0.28c0.11-0.28,0.21,0,0.53-0.09
			c0-0.37,0.31-0.47,0.21-0.94c0.1-0.09,0.42,0,0.52-0.09c-0.52-0.09-0.1-0.47,0.1-0.47c0.11-0.19-0.31-0.09-0.21-0.28
			c0.84-0.09,0.84-1.22,1.57-1.22c-0.11-0.47-0.53-0.28-0.95-0.28c0.11-0.56-0.84-0.47-0.63-1.03c-0.42-0.09-0.84-0.19-0.84-0.56
			c0.42-0.38,0.52,0.09,0.94-0.28c0.21,0.19,0.21,0.75,0.21,0.94c0.63,0,1.15,0.38,1.89,0.19c0.1-0.47,0.73-0.84,1.15-1.31
			c-0.21,0-0.31-0.09-0.31-0.28c0.21-0.09,0.42,0.09,0.63,0c0-0.19,0.32-0.19,0.42-0.38c-0.21,0-0.31-0.28-0.52-0.37
			c0,0.19,0.1,0.28,0,0.47c-0.31-0.28-0.94-0.28-0.94-0.75c0-0.09,0.1-0.19,0.21-0.19c0.42,0.19,0.73,0.09,1.36,0.09
			c0.1,0.19,0.21,0.28,0.1,0.38c0.11-0.09,0.21-0.09,0.42,0c0-0.38,0.21-0.47,0.21-0.75c-0.21-0.19-0.52-0.47-0.42-0.66
			c0.42-0.09,0.53,0.47,0.74,0.19c-0.53-0.47,0.94-0.84,0.21-1.22c0,0.28-0.21,0.19-0.53,0.09c0,0.28,0.32,0.38,0.11,0.56
			c-0.42-0.19-0.74,0.19-1.16,0.28c0-0.09-0.31-0.09-0.21-0.38c0.63-0.19,0.95-0.94,1.47-1.12c0-0.47-0.94-0.19-0.63-0.84
			c0.95,0.19,1.05,0.84,1.47,1.41l0.32-0.37c-0.32,0.09-0.42,0-0.53-0.19c0.11-0.09,0.53-0.09,0.32-0.28
			c-0.42-0.19-0.42-0.38-0.74-0.56c0.21-0.19,0.53-0.09,0.84-0.09c0-0.37-0.21-0.47-0.21-0.75c-0.21,0-0.42-0.09-0.52,0
			c-0.11-0.28-0.42-0.28-0.63-0.28l-38.52-2.81v-0.09h-0.31c0,0.19,0.21,0.09,0.1,0.28c-0.1,0.09-0.42,0-0.52,0.09
			c-0.11,0.28,0.21,0.28,0,0.47c-0.74,0.19-0.95,0.94-1.37,1.41c0,0.56,0.42,0.75,0.84,1.03c-0.63,0.47-0.73-0.38-1.26-0.47
			c-0.31,0.38,0.32,0.47,0.11,0.75c-0.11,0-0.11-0.09-0.21-0.09c-0.11,0.19,0.21,0.28,0,0.47c-0.11,0-0.11-0.37-0.32-0.19
			c0.21,0.47-0.52,1.22-0.52,1.97c0.21,0.19,0.84,0,0.84,0.28c-0.21,0.09-0.42,0.19-0.53,0.38c0.21,0,0.32,0,0.21,0.19
			c-0.1,0.19-0.52,0-0.63,0.09c0.1,0.28,0,0.47,0.1,0.75c-0.42,0.09-0.63,0.56-0.84,0.94c0.21,0,0.63-0.09,0.63,0.09l-0.31,0.38
			c-0.21-0.09-0.32-0.19-0.53-0.19c-0.1,0.19-0.42,0.19-0.42,0.56c0.11,0,0.11,0.09,0.11,0.19c0.42,0,0.63,0.09,0.84,0
			c0.21,0.09,0.42,0.28,0.52,0.47c-0.1,0.09-0.31,0.09-0.52,0.19c-1.26-0.75-1.68,0-2.73,1.22c0.21,0,0.21,0,0.31,0.19
			c0,0.09-0.31,0.09-0.42,0.19l0.21,0.38c-0.21,0-0.74,0.19-0.84,0.28c0.31,0,0.52,0,0.63,0.19c-0.32,0.09-0.74,0.09-1.05,0.28
			c0.1,0.38-0.11,0.28-0.21,0.66c0.21-0.09,0.63,0.28,0.42,0.47c-0.32,0-0.53-0.28-0.53,0.19c0.21,0.09,0.42-0.19,0.42,0.28
			c-0.1,0.09-0.42,0-0.63,0.09c0.11,0.28,0.42,0.38,0.53,0.66l9.55,0.75c0.73-0.66,1.89-1.12,2.41-1.78c0.94,0,1.26-0.66,1.57-1.22
			c0.32,0.28,0.74-0.19,1.16-0.28c0.1-0.28-0.32-0.19-0.21-0.47c1.36-0.56,3.15-1.31,5.04-1.03c-0.21,0.09,0,0.47-0.32,0.47
			c-1.47-0.19-2.83,0.28-4.09,0.75c0,0.47-0.21,0.84-0.73,0.84c0,0.19,0,0.47-0.1,0.56h-0.53c-1.68,0.94-3.46,1.78-4.83,3.09
			c-0.11,0.19,0.21,0.09,0.1,0.37l-0.31,0.28c-0.11-0.09-0.11-0.37-0.32-0.37c-0.63,0.75-2.2,0.28-2.83,1.22c0-0.09-0.21,0-0.31,0
			c-0.21,0.09,0.1,0.19-0.11,0.38c-0.42-0.19-1.05,0.19-1.99,0c0,0.19-0.31,0.19-0.31,0.47c0.21,0,0.52-0.09,0.52,0.09
			c-0.1,0.09-0.1,0.28-0.42,0.28c-0.31-0.09-0.21-0.38-0.21-0.47C183.49,57,183.18,57,182.86,57l0.32,28.49c0,0.75,0,0.84,0.31,4.97
			c0.11,1.12-0.63,1.59-0.84,2.44c0.63,0.75-0.31,0.94-0.52,1.69c-0.1,0.75,0.11,1.31-0.31,1.59c0.1,0.09,0.31,0.09,0.31,0.38
			c-0.31,0.56-0.94,0.84-1.26,1.41c0,0.28,0.53,0.66,0.11,0.84c-0.21-0.09-0.11-0.19-0.42-0.09c-0.11,0.19-0.42,0.28-0.53,0.56
			c0.53,0.09,0.53,0.66,0.74,0.94c-0.11,0.19-0.21-0.28-0.21,0.09c0.31,0.47,0.52,0.38,1.36,0.47c10.08,1.22,21.31,2.53,30.96,3.28
			c-0.11-0.28,0.42-0.66,0.52-0.75c1.05-0.19,1.68-0.94,2.1-1.31c0.54-0.08,1.4-0.37,1.83-0.87c-0.62,1.94-1.23,3.89-1.84,5.83
			c-0.11,0.11-0.22,0.24-0.33,0.4c-2.36,3.35-38.86,45.05-49.14,45.27c-3.96,0-5.94-3.35-5.94-8.49c0-9.72,3.49-20.01,7.82-27.61
			c1.51,2.24,3.02,4.47,6.13,4.47c5.18,0,10.27-7.94,10.27-13.19c0-4.02-2.45-6.71-6.98-6.71c-6,0-12.75,7.45-17.31,16.96
			c-0.06,0.06-0.12,0.14-0.17,0.22c-12.54,18.67-29.3,35.8-32.69,35.8c-3.39,0,3.11-21.24,3.11-31.63c0-2.68-0.75-7.6-6.69-7.6
			c-5.94,0-20.46,34.98-25.17,34.98c-1.7,0,8.01-33.87,8.01-41.58c0-2.73-0.48-6.83-3.99-7.58c0.06-0.16,0.12-0.31,0.24-0.37
			c0.52,0.28,0.84-0.47,1.57-0.38c0.1-0.19-0.21-0.37,0-0.56c0.31,0,0.1,0.38,0.42,0.38c1.36-0.84,4.09-0.66,5.77-0.19
			c0.21-15.75,0.21-31.58,0.31-47.42c-0.21-0.09-0.31-0.47-0.52-0.56c-0.84,0.28-0.84,1.22-1.36,1.69c-0.21-0.28-0.52,0-0.73-0.28
			c0.42-0.75,1.47-0.94,1.57-1.87c0-0.19-0.52-0.09-0.42-0.38c0.21-0.28,0.42,0,0.63,0.09c0.42,0,0.63-0.19,0.84-0.37
			c0-0.28-0.31-0.28-0.1-0.47c0.21,0,0.31,0.09,0.52,0.09c1.26-1.22,2.52-2.44,3.99-3.47c0-0.47,0.52-0.75,0.94-1.03
			c-1.05-0.84-0.94-0.66-2.52-1.31l-16.9-6.28l-0.73,0.19c0.63,0.28,1.15,1.03,1.78,0.75c0.21,0.28,0.1,0.47,0.31,0.66
			c0.1-0.19,0.63,0.09,0.84,0.09c-0.1,0.19,0.1,0.28,0,0.47l-0.42-0.28c0,0.19,0.21,0.28-0.1,0.37c-0.21-0.09-0.21-0.37-0.42-0.47
			c0,0.28,0.21,0.37-0.1,0.47c-0.31-0.09-0.21-0.66-0.42-0.56c0.21,0.19-0.63,0.28-0.73,0.09c0-0.19,0.63-0.19,0.42-0.38
			c0.21-0.19-0.42-0.38-0.42-0.38c0.1,0.09,0,0.38-0.21,0.47c-0.42-0.19-0.73-0.47-1.26-0.56c-0.21,0.28,0.1,0.56-0.42,0.66
			c-0.1,0.19,0.42,0,0.31,0.28c-0.42,0-0.63,0.37-0.84,0.19c-0.1,0.28,0.42,0.28,0.21,0.56c-0.31,0-0.21-0.28-0.52-0.19l-0.94,1.03
			c0.21,0.19,0.73,0.37,0.52,0.75c-0.42-0.28-0.52-0.28-1.05-0.28c-0.42,0.56-0.42,1.12-0.84,1.69c0.31,0,0.42,0.09,0.52,0.28
			c-0.21,0.28-0.94,0.19-1.15,0.47c0.21,0.09,0.52,0,0.52,0.28c-0.73,0-1.26,0.38-1.36,1.03c-0.42,0-0.73,0.37-0.63,0.66
			c0.1-0.09,1.05-0.09,0.84,0.28l-1.26-0.19c0.1,0.47,0.84,0.38,1.05,0.75c-0.31,0.09-0.84,0.09-0.94,0.28
			c0.1,0.28,0.52,0.47,0.31,0.66c-0.52-0.09-0.63-0.56-1.15-0.66c-0.42,0.19-0.21,0.94-0.63,0.84c0.1,0.09,0.21,0.09,0.21,0.28
			c-0.21,0.09-0.42,0.09-0.52,0.19c0.21,0.19,0.42,0.28,0.42,0.47c-0.1,0.19-0.31,0-0.52-0.09c0-0.09,0-0.28,0.1-0.37
			c-0.42,0.19-0.63,0.56-0.84,0.84c0.21,0,0.63,0.09,0.42,0.28c-0.52-0.09-0.94-0.19-1.05,0.28c0.31,0.19,0.52-0.19,0.73,0
			c-0.1,0.28-0.73,0.28-1.05,0.56l12.49,4.97c-0.42,0.66-1.26,1.12-2.2,0.94c-0.31,0.47-0.73,0.56-1.05,0.94
			c-0.63-0.19-0.94,0.19-1.36,0.28l-0.52,46.86c0.63-0.28,1.78-0.66,2.62-0.75v-0.19c0.21-0.19,0.1,0.19,0.42,0.09
			c0.55-0.27,1.09-0.54,1.62-0.8c-11.39,13.14-35.6,73.12-38.96,72.92c-3.77-0.22,17.16-65.61,21.59-77.23
			c0.94-2.57-3.58-5.36-4.81-4.92c-0.34,0.13-0.89,0.98-1.53,2.17c-0.63-8.68-1.2-17.41-1.85-26.07c-0.31-0.09,0,0.38-0.31,0.28
			c-0.1,0-0.31-0.28-0.52-0.09c0.52,0.28,0.21,1.22,0.21,1.78c-0.21,0-0.21-0.28-0.42-0.09c-0.52,0.75-0.21,2.34-1.26,2.62
			c0,0.94-0.73,1.31-1.15,1.97c-0.21-0.09-0.31,0-0.52,0c-0.63,1.78-2.73,2.44-3.36,4.03c-0.1-0.09-0.31-0.09-0.52-0.09
			c-0.21,0.09-0.21,0.37-0.42,0.47c-1.47,0.47-1.78,2.34-3.36,2.44c0.1-0.19,0-0.56,0.31-0.66h0.42c1.57-1.78,3.46-3.19,5.46-4.59
			c-0.31-0.47,0.42-0.56,0.31-1.12c1.15-0.19,1.26-1.22,1.78-1.97c-0.21-0.09-0.42-0.09-0.42-0.28c0.42,0,0.31-0.47,0.52-0.66
			c0.21,0.19,0.42,0,0.63-0.09c0.1-0.66,0.31-1.03,0.21-1.59c0.21-0.09,0.21-0.38,0.52-0.19c0.21-0.75,1.05-0.84,1.05-1.69
			c-1.99-1.03-5.56-2.91-8.08-3.75c-1.47-0.47-2.62,0.66-3.78,1.03c0.1,1.31-1.57,0.56-1.99,0.28c1.89,0.19,2.31-1.5,4.2-1.41
			c0.31-0.28,0.73-0.38,1.15-0.47c0.21-0.19,0.21-0.56,0.42-0.75c0.21,0.09,0,0.37,0.21,0.37c0.42-0.28,1.57-0.47,1.47-1.22
			c0.94-0.47,1.89-0.84,2.41-1.78h0.31c0-0.19,0-0.47-0.1-0.66c1.47-0.28,3.36,0.19,4.2-0.84c0.63,0.09,0.63-0.37,1.26-0.37
			c0-0.38,0.1-0.75,0-1.03c-1.15-2.62-2.73-6.28-4.09-9.18c-0.84,0.19-1.68,0.75-2.31,0.84c0.21-0.56,0.42-1.03,1.15-1.12
			c0.1-0.38,0.42-0.66,0.84-0.84c-0.52-0.38-0.31-0.75-0.73-1.12c0.63-0.28,1.05,0.38,1.15,0.56c0.63-0.19,0.94-0.94,1.57-0.84
			c0.31-0.56,0.1-1.31,0.63-1.69c-0.21,0-0.42-0.09-0.42-0.38c0.21-0.09,0.63-0.09,0.73,0c0-0.09-0.1-0.19-0.1-0.37
			c-11.44-2.53-23.09-5.15-34.74-7.78h-0.21c-0.84,0.38-1.57,0.84-2.31,1.5c-0.1-0.09-0.1-0.28-0.21-0.09
			c-0.73,0.84-2.31,1.12-2.94,2.16c0,0.19,0.21,0.09,0.1,0.37c0,0.09-0.31,0-0.31,0.09c0.21,0,0.42,0.09,0.31,0.28
			c-1.05-0.09-1.57,0.56-1.89,1.41c-0.21-0.09-0.31,0.09-0.63,0.09c-0.1,0.47-0.31,0.66-0.1,1.03c-0.21,0.84-0.84,1.31-0.63,2.06
			c-0.1,0.19-0.31-0.09-0.52,0.09c-0.1,0.38,0.21,0.66,0.1,0.84c-0.21,0-0.21-0.19-0.42-0.09c-0.73,0.94-1.99,1.87-2.41,3.19
			c0.1,0.09,0.31,0,0.31,0.19c0.1,0.19-0.21,0.09-0.21,0.19c0.21,0.09,0.52-0.09,0.31,0.28c6.19,1.59,12.39,2.91,17.95,4.22
			c-0.52,0.19-1.15,0.19-1.36,0.75c-0.73,0.09-1.78,0.47-2.41,0.84c-0.52-0.19-1.26,0.09-1.36,0.28c-1.26-0.09-2.2-0.28-3.78,0.09
			c-0.1-0.09-0.21-0.19-0.31-0.19c0,0.19,0,0.28-0.21,0.28c-0.21-0.28-0.73-0.09-1.05-0.28l-0.31,0.38
			c-0.31-0.09-0.42-0.28-0.73-0.28c-0.31,0.09-0.31,0.47-0.52,0.56c-0.1-0.19,0-0.37-0.31-0.28v21.46c0,3.09-0.21,8.9,0.21,9
			c0-0.47,0.31-0.09,0.63-0.38c0-0.94,1.05-0.66,1.47-0.84c0.73-0.38,0.73-1.31,1.78-1.5c-0.1-0.28,0.21-0.56,0.52-0.66
			c0.1,0.09,0,0.28,0.1,0.28c0-0.19,0.1-0.37,0.1-0.47c0.52,0.19,0.73-0.66,1.36-0.38c0-0.56,0.52-0.56,0.73-0.47
			c0-0.28-0.1-0.66,0.1-0.75c0.31,0.09,0.63,0.28,0.73,0.56c-2.2,1.69-4.09,3.47-7.14,4.5c0,0.19,0,0.38-0.1,0.47
			c-0.1-0.09-0.1-0.28-0.31-0.09c-0.52,0.66-0.84,1.5-1.57,1.97c0,0.19,0.31,0.19,0.1,0.28c-0.52,0.19-0.31,0.37-0.52,0.75
			c-0.1,0.09-0.42,0-0.52,0.19c0,0.28,0.42,0.38,0.1,0.56c-0.1-0.09-0.31-0.19-0.63-0.19c-0.1,0.28,0.21,0.19,0.1,0.37
			c-0.21,0.19-0.42,0-0.52,0.28c0.21,0,0.52,0,0.52,0.19c-0.21,0.28-0.73,0.38-1.15,0.38c-0.1,0.28,0.31,0.19,0.1,0.38
			c-0.1,0.09-0.52-0.09-0.52,0.09c0.1,0.09,0.31,0.09,0.21,0.37c-0.21,0.19-0.31-0.28-0.52-0.09c0.21,0.09,0.52,0.28,0.31,0.56
			c-0.21,0.09-0.42-0.38-0.52-0.09c0.1,0.38,0.94,0.94,1.47,1.31c3.88,3,7.87,6.09,11.76,8.9c0.31-0.09,0.52,0,0.73,0.19
			c0-0.28-0.42-0.28-0.21-0.47c0.31,0.09,0.52,0.38,0.94,0.47c-0.1-0.28,0.1-0.47,0.42-0.38c0.21-0.19-0.21-0.09-0.21-0.19
			c0.1-0.09,0.42,0,0.63,0l1.57-2.06c-0.31,0-0.52-0.09-0.42-0.28c0.42-0.09,0.63,0.19,0.84,0.09c0-0.19,0.1-0.09,0.21-0.19
			c-0.63-0.28,0.1-0.66,0.84-0.47c0.21-0.56,0.94-0.66,1.05-1.31c-0.1-0.19-0.21-0.28-0.21-0.47c0.31,0.09,0.1-0.56,0.63-0.38
			c0,0.19-0.42,0.56-0.1,0.56c0.21-0.28,0.31-0.66,0.31-1.12c0.63,0.09,0.31-0.28,0.42-0.56c0.21-0.09,0.31,0.28,0.31,0
			c0.1-0.56,0.31-0.94,0.1-1.22c0.21-0.19,0.21,0.19,0.42,0.09c-0.21-0.66,0.84-0.84,1.05-1.78c0.1-0.47-0.42-1.87,0.21-1.97
			c0.1,0,0.31,0.66,0.42,0.19c-0.42-0.19-0.52-0.56-0.73-0.94c0.42-0.09,0.84,0.19,0.94,0.47c0.21-0.28,0.21-0.56,0.31-0.84
			c-1.15-0.75-2.41-1.69-3.15-2.62c0.63,0.28,1.05,0.84,1.78,1.12v-13.5l7.56,3.75l1.57,23.9c0.42,0.09,0.63,0.38,0.94,0.47
			c0-0.19,0-0.28,0.21-0.28c0.42,0.38,1.05-0.09,1.36,0.28c0.21-0.19,0.63-0.38,1.05-0.47c0.21-0.09-0.1-0.38,0.21-0.38
			c0.1,0,0.1,0.19,0.31,0.28c0.31-0.37,1.15-0.28,1.57-0.66c0.1-0.19-0.1-0.28,0-0.47c0.31,0,0.21,0.28,0.52,0.19
			c0.52-0.38,1.05-0.84,1.99-0.84c0-0.19,0-0.37,0.31-0.37c-0.1-0.28-0.31-0.38-0.31-0.66c0.21-0.09,0.1-0.47,0.52-0.47
			c0.1,0.19,0,0.56,0.31,0.56c0.21-0.28-0.31-0.47-0.31-0.75c0.31-0.66,0.73,0,0.63,0.66c1.78,0,2.73-1.22,4.51-1.22
			c0.21-0.09,0.1-0.38,0.42-0.47c0,0.09,0.18,0.17,0.37,0.18c-0.88,2.03-1.67,4.05-2.11,5.31c-0.19,0.56-0.09,1.23,0.09,1.68
			l0.09,0.22c0.19,0.56,0.19,1.01,0,1.56c-5.47,16.32-16.78,50.86-16.78,61.81c0,9.39,5.47,10.62,7.26,10.62
			c1.79,0,35.26-76.23,39.97-76.34c2.73-0.11-8.67,30.07-8.67,41.47c0,6.93,4.05,10.51,6.6,10.51c3.96,0,23.47-39.46,25.83-39.46
			s-4.24,18.33-4.24,30.85c0,5.03,5.37,8.49,7.64,8.49c5.6,0,21.7-21.04,29.46-31.56c-1.49,4.66-2.38,9.46-2.38,13.89
			c0,10.39,5.28,15.54,12.44,15.54c8.43,0,35.75-28.9,46.14-40.75c-10.02,32.7-18.14,63.62-18.89,76.48
			c-0.36,6.14,4.83,9.57,9.81,9.86c7.72,0.45,32.49-50.5,49.22-82.65c3.61,0.99,7.22,1.97,10.86,2.9c1.05-0.66,1.99-1.5,3.04-2.25
			c0.21-0.09-0.21-0.19,0-0.28c0.74-0.09,1.16-0.38,1.37-0.94c1.05-0.28,1.68-0.94,2.2-1.78c0.84-0.09,1.26-0.66,1.26-1.5
			c-0.84,0.38-1.89,0.84-2.94,1.03c0.42-0.84,1.36-0.56,1.89-1.12c0.42,0.47,1.05-0.56,1.36-0.19c0-0.38,0.21-0.56,0.42-0.66
			c0.1,0.09,0,0.47,0.31,0.37c0-0.09,0.32-0.37,0.21-0.47c0,0.19-0.31,0.09-0.21,0c0.32-0.66,1.16,0.09,1.47-0.28
			c0-0.28-0.42-0.28-0.1-0.47c0.21-0.09,0.21,0.09,0.52,0c0-0.19-0.31-0.38-0.21-0.56c0.21,0,0.21-0.09,0.32-0.09
			c0.21,0.19,0.21,0.56,0.52,0.56c0-0.47,0.42-0.56,0.73-0.75c0-0.28-0.31-0.09-0.31-0.28c0.31-0.28,0.1-0.47,0.1-0.66
			c0.42,0.09,0.42-0.19,0.74-0.19c0.73-1.87,2.83-2.16,3.57-3.94c0-0.09,0.21-0.09,0.32-0.09c0-0.47,0.1-0.56,0.31-0.56
			c-0.52-0.47,0.32-1.22,0.95-1.31c-0.21-0.19,0.1-0.47,0.31-0.56c0.31,0.09,0.1,0.47,0.52,0.47c0.63-0.47,0.95-1.22,1.37-1.87
			c0.31,0,0,0.47,0.31,0.37c0.74-0.56,1.26-1.22,1.99-1.78c0-0.09-0.1-0.19-0.1-0.47C286.88,100.11,286.78,99.65,286.78,98.99z
			 M259.9,42.29c-0.21,0.19-0.31-0.19-0.52-0.19C259.48,41.82,260.01,42.1,259.9,42.29z M256.76,43.98c0.1,0.09,0.31,0.19,0.21,0.28
			c0.1,0,0.31,0.09,0.31,0.19c0.21-0.09-0.21-0.19,0-0.38c0.42,0.28,1.26,0.19,1.37,0.66c-0.74,0.19-1.05-0.28-2-0.09
			c-0.1-0.28-0.1-0.28-0.42-0.37C256.23,43.98,256.44,43.88,256.76,43.98z M256.44,44.54c-0.21,0.09-0.42,0.09-0.42,0.28
			c-0.31,0-0.21-0.28-0.42-0.37C255.71,44.26,256.44,44.16,256.44,44.54z M254.55,44.63c0.21-0.09-0.32-0.19,0-0.28
			c0.21,0,0.31,0.09,0.52,0.19c0,0.09-0.1,0.09-0.1,0.19c-0.11,0-0.21,0-0.21-0.09c-0.21,0.09,0.31,0.19,0,0.28
			c-0.32,0-0.63,0.19-0.84,0C253.92,44.73,254.13,44.54,254.55,44.63z M254.87,52.88c0-0.19,0.42-0.38,0.42-0.75
			c0.52,0.28,0.21,0.84,0.11,1.5c-0.32,0-0.32-0.19-0.32-0.28c-0.21,0.28-0.52,0.09-0.63,0.37c-0.21,0-0.42-0.09-0.52-0.19
			C254.03,53.16,254.34,52.88,254.87,52.88z M254.24,54.28c-0.21,0-0.63,0.09-0.84-0.09C253.4,53.63,254.45,53.53,254.24,54.28z
			 M252.87,55.78c-0.42-0.09-0.94-0.19-0.74-0.47c0.21,0,0.11,0.09,0.32,0.09c0.42-0.19-0.21-0.94,0.52-0.84
			C253.29,55.03,252.87,55.22,252.87,55.78z M252.66,44.82c-0.11,0.09-0.53,0-0.63-0.09C252.14,44.44,252.77,44.35,252.66,44.82z
			 M252.03,44.26c0,0.09,0.21,0.09,0.1,0.28c-0.1,0.09-0.42,0-0.52-0.09C251.61,44.26,251.82,44.26,252.03,44.26z M216.56,73.68
			c0,0.28-0.53,0.28-0.74,0.19v-0.28C216.03,73.5,216.35,73.59,216.56,73.68z M216.98,66.37c-0.32,0.09-0.95,0.38-1.05-0.09
			C216.35,66.37,216.98,65.72,216.98,66.37z M216.03,67.5c0.21,0.09,0.42,0.19,0.42,0.38c-0.21,0.19-0.52,0.28-0.63,0.09
			C215.72,67.69,216.03,67.69,216.03,67.5z M200.81,74.15v-0.19c0.21-0.19,0.53,0,0.74,0.09C201.55,74.25,201.02,74.34,200.81,74.15
			z M201.65,73.03c-0.31,0-0.63,0-0.63-0.28c0.21-0.09,0.42,0.09,0.53-0.19C201.76,72.65,201.76,72.84,201.65,73.03z M201.23,71.72
			c0.11,0.09,0.32,0.19,0.32,0.47c-0.21,0.09-0.32-0.19-0.53-0.19C201.02,71.81,201.23,71.9,201.23,71.72z M201.13,66.94
			c0.21-0.19,0.42,0.09,0.42,0.28C201.44,67.31,201.02,67.22,201.13,66.94z M201.23,67.59c0-0.28,0.42-0.38,0.63-0.19
			C201.97,67.69,201.44,67.78,201.23,67.59z M201.13,66.37c-0.21-0.19-0.42-0.28-0.42-0.66c0.21-0.09,0.42,0.09,0.52-0.28
			c0.21,0.09,0.42,0.28,0.63,0.28c0,0.19-0.21,0.09-0.31,0.28c0.21,0.09,0.84-0.19,1.05,0.09c0,0.19-0.21,0.19-0.31,0.28
			C201.86,66.37,201.44,66.19,201.13,66.37z M200.81,65.25c0-0.28,0.32-0.28,0.53-0.09C201.44,65.44,200.92,65.34,200.81,65.25z
			 M213.2,72.93c0.11-0.09,0.63-0.09,0.74,0C213.93,73.31,213.2,73.31,213.2,72.93z M213.93,69.94c0-0.37,0.52-0.28,0.84-0.19v0.28
			C214.56,70.12,214.04,70.12,213.93,69.94z M214.46,69.37c0-0.19,0.63-0.38,0.63,0C214.98,69.47,214.56,69.47,214.46,69.37z
			 M214.67,70.97c0-0.28,0.53-0.38,0.63-0.09C215.3,71.25,214.77,71.06,214.67,70.97z M214.98,73.97c0-0.19,0.42-0.28,0.63-0.09
			C215.61,73.97,215.19,74.06,214.98,73.97z M215.61,63.94c-0.11,0.09-0.53,0-0.53-0.19C215.3,63.56,215.72,63.66,215.61,63.94z
			 M214.56,68.81c-0.11-0.19-0.21-0.47,0-0.56l0.52,0.28C215.09,68.72,214.77,68.81,214.56,68.81z M213.62,67.59
			c0.11-0.09,0.84-0.09,0.95,0.09C214.46,67.97,213.62,67.97,213.62,67.59z M214.25,63.94c0.11,0.09,0.11,0.38,0,0.47
			c-0.21-0.09-0.31-0.19-0.31-0.38C213.93,63.94,214.04,63.94,214.25,63.94z M214.14,64.78c-0.11,0.09-0.42,0-0.63-0.09
			C213.51,64.31,214.25,64.41,214.14,64.78z M213.72,65.16v0.28c-0.11,0.09-0.42-0.09-0.42-0.28
			C213.41,65.06,213.62,65.06,213.72,65.16z M213.83,69.94c-0.1,0.19-0.52,0.19-0.94,0.19C212.67,69.75,213.62,69.56,213.83,69.94z
			 M212.88,74.06c-0.21,0.09-0.52,0-0.73-0.09c0.31-0.28,0.21-0.47,0-0.75C212.88,72.93,212.99,73.59,212.88,74.06z M212.25,64.97
			c-0.1,0.19-0.63,0.47-0.84,0.19C211.62,64.97,211.94,64.88,212.25,64.97z M209.94,64.13c0.21,0.09,0.42,0.09,0.53,0.19
			C210.26,64.69,209.52,64.31,209.94,64.13z M209,69.09c-0.21,0.09-0.31,0.09-0.42,0c0-0.19,0.11-0.38,0.32-0.28
			C209,68.81,209,69,209,69.09z M208.89,67.59c-0.11,0.28-0.63,0.19-0.63,0C208.26,67.31,208.79,67.41,208.89,67.59z M204.17,68.44
			c0.21,0,0.21,0.28,0.1,0.37C204.06,68.81,204.06,68.53,204.17,68.44z M203.44,67.87c-0.21,0-0.31-0.19-0.31-0.38
			C203.33,67.41,203.85,67.69,203.44,67.87z M203.75,68.72c0,0.19-0.32,0.28-0.53,0.28c0-0.19-0.21-0.09-0.21-0.28
			C203.12,68.62,203.54,68.62,203.75,68.72z M202.7,72.09c-0.32,0.09-0.21-0.38-0.11-0.47C202.81,71.62,203.02,72,202.7,72.09z
			 M202.28,65.06c-0.1,0.28-0.42,0-0.52,0.09c0.1,0.28,0.73,0.19,1.05,0.28c-0.31,0.56-1.47,0.09-1.36-0.28
			C201.55,64.78,202.07,64.78,202.28,65.06z M201.23,63.47c0.21,0,0.32,0.09,0.53,0.19c-0.11,0.19-0.53,0.28-0.63,0.19
			C201.13,63.66,201.13,63.56,201.23,63.47z M201.55,64.31c-0.11,0.47-1.05,0.28-0.95-0.09C200.81,64.03,201.23,64.31,201.55,64.31z
			 M223.17,47.35c0.21-0.19,0.53-0.09,0.53,0.19C223.59,47.63,223.06,47.63,223.17,47.35z M226.42,44.91
			c-1.15,0.66-1.47-1.31-0.63-0.19C226.11,44.73,226.21,44.91,226.42,44.91z M226.11,41.54c0.1-0.09,0.52-0.09,0.52,0
			c0.11,0.28-0.31,0.38-0.52,0.28V41.54z M225.16,41.07c0.31,0,0.42,0.38,0.21,0.47C225.16,41.63,225.06,41.26,225.16,41.07z
			 M225.9,43.41c-0.21,0.28-1.05,0.09-1.05-0.19C225.06,43.13,225.58,43.32,225.9,43.41z M225.27,44.82c-0.1,0.09-0.42,0.09-0.52,0
			c0-0.19,0.1-0.19,0.1-0.37C225.06,44.54,225.27,44.54,225.27,44.82z M224.74,41.63c-0.21,0.28-0.95,0-1.05-0.28
			C224.11,41.16,224.53,41.45,224.74,41.63z M224.01,41.91c-0.31,0.19-0.63,0.09-0.63-0.19C223.59,41.54,224.01,41.63,224.01,41.91z
			 M224.74,44.26c-0.42,0.19-0.95-0.09-1.47-0.09C223.48,43.69,224.53,43.98,224.74,44.26z M223.17,41.35
			c-0.21,0.19-0.52,0.09-0.63,0C222.54,41.07,223.17,41.07,223.17,41.35z M222.12,40.98c0,0.28,0.31,0.28,0.31,0.47
			c-0.1,0.09-0.21,0.09-0.31,0.09c-0.11-0.19-0.21-0.28-0.42-0.37C221.8,41.07,221.91,40.98,222.12,40.98z M219.81,47.91
			c0-0.19,0.52-0.28,0.52,0C220.23,48.01,219.91,48.01,219.81,47.91z M220.33,52.6c0.11-0.28,0.53-0.28,0.63,0.09
			C220.75,52.79,220.54,52.6,220.33,52.6z M220.33,47.35c0-0.28,0.32-0.28,0.42-0.38C221.17,47.16,220.65,47.54,220.33,47.35z
			 M221.59,40.79c-0.21,0.28-0.31,0.38-0.31,0.75c-0.53,0.09-0.21-0.66-0.63-0.66C220.65,40.51,221.28,40.7,221.59,40.79z
			 M220.86,45.48c-0.11,0.09-0.11,0.28-0.11,0.38c-0.21-0.19-0.52-0.28-0.84-0.38C220.02,45.19,220.65,45.38,220.86,45.48z
			 M219.91,40.6c-0.1,0.09-0.63,0.09-0.73-0.09C219.28,40.23,220.02,40.23,219.91,40.6z M219.08,41.07c0.21,0,0.42,0.09,0.31,0.28
			c-0.11,0.09-0.42,0.09-0.52,0C218.87,41.16,218.97,41.07,219.08,41.07z M219.08,43.79l0.1,0.38c-0.21,0.19-0.52,0-0.73-0.09
			C218.55,43.88,218.76,43.79,219.08,43.79z M219.39,54.38c0.1,0,0.1,0.19,0.21,0.28c-0.32,0.75-1.15,0.84-1.36,0
			C218.55,54.47,219.28,54.75,219.39,54.38z M181.29,51c0-0.19,0.42-0.28,0.63-0.19C181.81,51.29,181.5,51.1,181.29,51z
			 M183.91,49.22c0-0.28,0.42-0.37,0.63-0.19C184.54,49.22,184.12,49.32,183.91,49.22z M183.91,48.66c0-0.38,0.63-0.28,0.63,0
			C184.44,48.76,184.02,48.76,183.91,48.66z M185.7,43.32c0.11-0.47,0.63-0.09,0.84,0C186.54,43.79,185.8,43.6,185.7,43.32z
			 M186.64,46.04c-0.11,0-0.21-0.09-0.21-0.19c-0.21,0.09-0.32,0.28-0.53,0.09c0-0.19,0.21-0.19,0.32-0.37
			c0.1,0.19,0.52-0.09,0.73,0.19C186.96,45.94,186.64,45.85,186.64,46.04z M187.9,43.79c0.21-0.19,0.73-0.09,0.73,0.19
			C188.43,44.07,187.9,44.07,187.9,43.79z M188.22,49.04c0.21-0.09,0.63,0,0.63,0.28C188.64,49.41,188.22,49.32,188.22,49.04z
			 M189.69,43.88c-0.11,0.09-0.21,0.09-0.21,0.19l-0.42-0.19C189.16,43.6,189.48,43.69,189.69,43.88z M190.1,53.16h-0.42
			c-0.11-0.19-0.11-0.47-0.32-0.47c0.11-0.19,0.63-0.28,0.84-0.19L190.1,53.16z M189.37,44.91c0.11-0.28,0.74-0.28,0.84-0.09
			C190.21,45.01,189.48,45.01,189.37,44.91z M193.36,40.41c-0.42,0.09-0.42-0.47-0.21-0.66c0.21-0.09,0.21,0.09,0.31,0.09
			C193.36,40.13,193.46,40.23,193.36,40.41z M194.51,41.16c-0.1,0.19-0.42,0-0.42-0.19C194.3,40.79,194.62,40.98,194.51,41.16z
			 M194.72,42.57c0.21,0.09,0.32,0.28,0.42,0.47C194.83,43.23,194.51,42.85,194.72,42.57z M199.87,40.7c-0.21,0.19-0.63,0-0.53-0.28
			C199.55,40.32,199.97,40.41,199.87,40.7z M199.76,41.73c-0.1,0.09-0.31,0.09-0.42,0c0-0.19,0-0.19,0.11-0.28
			C199.55,41.45,199.76,41.54,199.76,41.73z M199.66,39.38c0.1,0.28-0.32,0.19-0.42,0.38l-0.52-0.38
			C199.13,39.1,199.34,39.48,199.66,39.38z M196.82,47.16c0-0.47,0.52-0.28,0.73-0.09C197.45,47.35,197.03,47.26,196.82,47.16z
			 M198.29,44.63c0.1-0.28,0.52-0.09,0.63,0C198.82,44.91,198.5,44.73,198.29,44.63z M198.82,43.32c-0.1-0.38,0.63-0.47,0.63,0
			C199.34,43.41,198.92,43.41,198.82,43.32z M199.34,44.73c0.11-0.37,0.63,0,0.84,0C200.08,45.1,199.45,44.91,199.34,44.73z
			 M216.66,40.88c-0.31,0.09-0.63,0.09-0.63-0.28C216.14,40.51,216.66,40.6,216.66,40.88z M215.51,40.41c0,0.38-0.63,0.19-0.73,0.09
			C214.88,40.32,215.4,40.32,215.51,40.41z M214.77,42.29c-0.11,0.19-0.42,0-0.42-0.28C214.56,41.82,214.98,42.2,214.77,42.29z
			 M213.62,40.23c-0.21,0.19-0.42,0-0.52-0.09C213.2,39.95,213.62,39.95,213.62,40.23z M210.47,43.51c0,0.28-0.42,0.09-0.74,0.19
			c0-0.19-0.21-0.19-0.21-0.47C209.94,43.13,209.94,43.51,210.47,43.51z M209.42,41.07c-0.11,0.19-0.52,0-0.52-0.28
			C209.1,40.7,209.42,40.79,209.42,41.07z M205.64,52.22c-0.11,0.09-0.53,0-0.53-0.28C205.32,51.75,205.64,51.94,205.64,52.22z
			 M204.27,41.26c0.32,0.09-0.21,0.28-0.21,0.47c-0.21,0-0.31-0.09-0.31-0.37C203.85,41.26,204.17,41.35,204.27,41.26z
			 M203.75,48.29c0,0.28-0.42,0.28-0.53,0.09C203.23,48.19,203.64,48.19,203.75,48.29z M202.39,48.57c0.11-0.09,0.63-0.09,0.74,0.09
			c-0.11,0.19-0.42,0.19-0.63,0.19C202.49,48.76,202.28,48.76,202.39,48.57z M198.19,85.31c-0.21-0.09-0.31-0.28-0.1-0.47l0.42,0.28
			C198.5,85.31,198.19,85.21,198.19,85.31z M199.66,63c-0.11,0.19-1.05,0.09-1.36,0C198.5,62.81,199.45,62.91,199.66,63z
			 M198.08,80.25h0.21C198.61,80.81,197.66,80.81,198.08,80.25z M198.08,63c-0.11,0.38-0.63,0-0.84,0.19L197.14,63
			C197.35,62.91,197.87,62.91,198.08,63z M182.65,100.39c-0.31,0.09-0.52-0.19-0.31-0.28C182.55,100.11,182.76,100.3,182.65,100.39z
			 M200.81,88.77c0.11,0,0.11,0.09,0.21,0.09c0,0.28-0.1,0.47-0.21,0.56C200.6,89.43,200.71,88.96,200.81,88.77z M196.61,63
			c-1.26,0.19-3.15,0.19-4.41,0C193.46,62.81,195.04,62.72,196.61,63z M191.57,85.77c0-0.38,0.42-0.28,0.52-0.47
			c0.42,0.56,1.68-0.38,2.41,0.09c0.21,0.19-0.21,0.19,0,0.38c0.11,0,0.11-0.09,0.21-0.09c0.11,0-0.31-0.19,0-0.38
			c0.21,0,0.42,0.19,0.42,0.38h0.42c0.11,0.19,0.31,0.38,0.21,0.56c-0.21,0-0.42,0-0.42-0.19
			C193.88,86.34,192.73,85.96,191.57,85.77z M194.72,86.99c-0.1,0.28-0.52,0.19-0.73,0.09C194.09,86.81,194.62,86.81,194.72,86.99z
			 M192.1,58.78c0.42,0.09,0.21,0.47,0,0.66C191.89,59.35,191.99,58.88,192.1,58.78z M191.89,85.02c-0.21,0.09-0.42,0.09-0.52,0.28
			c-0.21,0,0-0.47-0.32-0.38c0.11-0.09,0-0.37,0.11-0.47C191.57,84.56,191.89,84.65,191.89,85.02z M190.73,55.41
			c0,0.09-0.11,0.28-0.32,0.28c-0.1-0.19-0.21-0.19-0.21-0.38C190.31,55.22,190.63,55.32,190.73,55.41z M190,62.81
			c0.21-0.84,1.37-0.19,1.58,0.19c-0.42,0.28-0.63,0.09-1.16,0.19l-0.31-0.28c0.21,0.19-0.32,0.38-0.53,0.19
			c-0.1-0.28,0.21-0.19,0.42-0.19V62.81z M189.89,61.78c-0.63,0-0.74-0.94-0.32-1.03c0-0.28-0.31-0.38-0.42-0.66
			C190.1,59.72,189.79,61.41,189.89,61.78z M188.85,56.44c0.52-0.09,0.42,0.56,0.31,0.75C188.85,57.1,188.74,56.72,188.85,56.44z
			 M189.89,69.56c-0.63,0.94,0.21,1.22,0.52,1.97c-0.31,0.19-0.42-0.37-0.73-0.47c-0.11,0.56,1.05,1.78,0.31,2.34
			c0.53,0.38,0.53,0.66,0.53,1.31c0.21,1.31,1.47,2.81,0.73,4.22c-0.73-2.16-1.05-4.4-1.89-6.47c0.11-0.28,0.42-0.09,0.53-0.19
			c-0.53-0.09-0.74-1.03-0.53-1.5c-0.63-0.47-0.52-1.12-0.84-1.78c0-0.09,0.1-0.19,0.21-0.19l-0.42-0.28c0-0.09,0.1-0.19,0.21-0.09
			c-0.74-1.22-0.95-2.81-1.47-3.94c0.21-0.19,0.42,0,0.52,0.09C188.11,66.09,188.74,68.25,189.89,69.56z M190.73,85.59
			c-0.42,0-0.53-0.56-0.32-0.84C190.84,84.74,190.94,85.4,190.73,85.59z M189.37,85.4c-0.21,0-0.31-0.19-0.31-0.38
			c0.1,0,0.21-0.09,0.31-0.09C189.48,85.02,189.48,85.31,189.37,85.4z M188.85,85.21c-0.1,0.28-0.84,0.28-1.15,0.19
			C187.69,84.93,188.53,85.02,188.85,85.21z M187.38,80.34c-0.21,0-0.31-0.09-0.31-0.28c0.1-0.19,0.42-0.47,0.63-0.38
			C187.59,79.87,187.59,80.15,187.38,80.34z M187.8,79.87c0.11-0.28,0.21-0.47,0.21-0.66c0.32,0.19,0.21,0.66,0.11,0.94L187.8,79.87
			z M186.75,62.91c0.21,0,0.42,0,0.53,0.09c0.1,0.94,0.21,0.75-0.11,1.41c-0.21,0-0.1-0.19-0.31-0.19c0.1-0.47,0.1-0.75-0.21-0.94
			L186.75,62.91z M186.33,67.97c0.21,0,0.42,0.19,0.42,0.38c-0.1,0.09-0.21,0.09-0.42,0.09C186.22,68.34,186.22,68.06,186.33,67.97z
			 M186.43,80.34v0.37c-0.21,0-0.42,0-0.74-0.09v-0.28C185.91,80.15,186.22,80.25,186.43,80.34z M186.33,73.5
			c0,0.47-0.84,0.38-1.15,0.19C185.17,73.22,186.12,73.59,186.33,73.5z M184.86,70.03c-0.21,0.09-0.42-0.28-0.53-0.47
			c0-0.09,0-0.28,0.11-0.38h0.21C184.75,69.47,184.86,69.65,184.86,70.03z M184.54,89.8c-0.1,0.09-0.42,0.09-0.52,0
			c0-0.19,0.1-0.28,0.42-0.28C184.54,89.52,184.54,89.71,184.54,89.8z M184.23,67.22c0.31,0.09,0.31,0.38,0.21,0.56
			C184.12,67.78,183.91,67.41,184.23,67.22z M183.91,68.72c0.21-0.09,0.53-0.09,0.84,0c-0.1,0.19-0.31,0.28-0.63,0.38
			C184.12,68.9,183.81,69,183.91,68.72z M183.91,93.93c0.21,0.09,0.32,0.28,0.63,0.28c-0.1,0.09-0.21,0.09-0.21,0.19
			c0.32,0.09,0.63,0.09,0.95,0c0,0.19,0.21,0.09,0.1,0.28c0.31-0.19,0.52,0.28,0.84,0c0.1,0.09,0.1,0.38,0.42,0.38
			c-0.42,0.28,0.21,0.28,0.1,0.66c-0.52,0.09-0.94-0.47-1.57-0.47c0-0.19,0.21-0.19,0.21-0.28c-0.42-0.09-0.31,0.19-0.52,0.19
			c-0.32-0.19-0.84-0.38-0.63-0.75C184.02,94.3,183.7,94.21,183.91,93.93z M183.18,93.18c0.52,0.28,0.1,1.41,0.63,1.59
			c-0.11,0.09-0.32,0.09-0.53,0.09C183.18,94.4,182.97,93.65,183.18,93.18z M183.6,95.8c0.52-0.19,0.52-0.66,1.26-0.47
			c0,0.37-0.32,0.37-0.53,0.28c0,0.19,0.21,0.09,0.21,0.28C184.12,96.27,183.81,96.27,183.6,95.8z M185.07,97.4
			c-0.63-0.19-0.63-0.47-1.05-0.84c0.52-0.09,1.05,0.37,1.57,0.47C185.49,97.3,184.96,97.11,185.07,97.4z M186.33,97.4
			c0.21-0.19,0.32-0.19,0.42-0.47c0.63,0,0.32,0.56,0.84,0.66C187.27,97.96,186.54,97.58,186.33,97.4z M188.32,97.49
			c0.21-0.47,1.15,0,1.57,0.28C189.48,97.96,188.74,97.58,188.32,97.49z M192.94,100.11c-0.11-0.19-0.21-0.37-0.53-0.47
			c0.32-0.66,0.63,0.09,1.05,0.28C193.36,100.02,193.25,100.11,192.94,100.11z M194.83,97.49v-0.28c0.21-0.09,0.73,0.09,0.73,0.38
			C195.35,97.77,195.04,97.58,194.83,97.49z M196.3,100.96c0.11-0.38,0.74-0.47,0.74,0C196.93,101.05,196.4,101.24,196.3,100.96z
			 M197.03,99.55c0.21-0.19,0.73,0,0.94,0.19C197.77,100.11,196.72,99.83,197.03,99.55z M198.82,98.61
			c0.11-0.28,0.63-0.09,0.84,0.09C199.55,99.18,198.92,98.9,198.82,98.61z M195.88,95.24c-0.21,0-0.1,0.28-0.21,0.47
			c-1.37,0-2.1,0.09-3.25-0.28c0,0.28-0.94,0.28-1.05,0c-0.32,0.37-1.16,0.47-1.37,0.28l-0.42,0.56c-0.73-0.09-1.57,0.38-2.31-0.09
			c-0.21,0.09-0.21,0.38-0.32,0.56l-0.21-0.09c-0.1-0.28,0.11-0.94,0.53-1.12c0.21,0,0.31,0.09,0.31,0.28
			c0.32-0.09,0.42-0.28,0.74-0.37c0.21,0.19,0,0.19-0.11,0.37c0.21,0.28,0.21,0,0.63,0v-0.56c0.94,0.09,1.47,0.09,2.52,0.09
			c0.31,0,1.05-0.09,1.26-0.38c0.11,0,0.11,0.09,0.11,0.28c0.1-0.09,0.31-0.19,0.52-0.19c0-0.28-0.21-0.28,0-0.47
			c0.21,0,0.32,0.09,0.21,0.28c0.11,0,0.11-0.09,0.21-0.19c0.53,0.47,1.68-0.19,2.1,0.47c0.31-0.19,0.63-0.28,0.94-0.28
			c-0.21,0.38,1.37,0,1.68-0.28c0.11,0.09,0.11,0.19,0.11,0.28c0.31-0.19,0.31-0.19,0.73-0.28c0.1,0.28,0.31,0.28,0.42,0.38
			C198.4,95.24,196.82,95.43,195.88,95.24z M199.76,95.15c0.11-0.38,1.05-0.56,1.26-0.19C200.92,95.24,200.08,95.15,199.76,95.15z
			 M201.02,94.4c-0.31-0.09-0.31-0.56-0.1-0.75C201.23,93.74,201.13,94.21,201.02,94.4z M211.2,92.9c0,0.38-0.63,0.38-0.63,0
			C210.68,92.8,211.1,92.8,211.2,92.9z M210.68,93.93c0,0.19-0.63,0.19-0.63,0C210.05,93.55,210.57,93.83,210.68,93.93z
			 M206.37,88.02c-0.11,0.19-0.32,0.19-0.63,0.19c0-0.09-0.1-0.09-0.1-0.19C205.74,87.93,206.27,87.93,206.37,88.02z M205.64,99.83
			c-0.21,0.09-0.84,0-0.84-0.38C205.11,99.36,205.74,99.46,205.64,99.83z M205.32,98.33c0,0.19-0.1,0.28-0.31,0.28
			C204.69,98.33,205.01,98.05,205.32,98.33z M204.9,97.68c-0.31,0-0.52-0.09-0.63-0.38C204.59,97.11,205.11,97.49,204.9,97.68z
			 M204.48,98.71c0,0.09,0,0.28-0.1,0.38c-0.32,0-0.32-0.28-0.53-0.38C203.85,98.52,204.38,98.61,204.48,98.71z M202.7,100.02
			c-0.21,0-0.11-0.28-0.11-0.47c0.21-0.09,0.53-0.19,0.74-0.09C203.33,99.83,202.81,99.74,202.7,100.02z M203.64,102.46
			c0.11-0.38,0.84-0.38,0.95,0.09C204.27,102.74,203.96,102.55,203.64,102.46z M204.8,102.46c0.1-0.38,1.15-0.47,1.05,0.09
			C205.64,102.64,205.01,102.36,204.8,102.46z M207.11,92.9c0.11,0.19,0.42,0.56,0.11,0.66c-0.32-0.19-0.42-0.47-0.74-0.56
			c0-0.28,0.21,0,0.53-0.09l-0.11-0.09c0-0.19,0.11-0.19,0-0.37c-0.1,0-0.21,0.09-0.21,0.19l-0.52-0.37c0.31-0.28,1.15-0.19,1.36,0
			c0.11,0.19-0.21,0.19-0.21,0.28c0,0.19,0.42,0.09,0.42,0.19C207.74,92.99,207.32,92.99,207.11,92.9z M206.69,89.43
			c0.11-0.09,0.63,0.09,0.53,0.37C207,89.99,206.69,89.71,206.69,89.43z M207.11,91.4c-0.31-0.09-0.42-0.38-0.21-0.56
			C207.11,90.93,207.32,91.21,207.11,91.4z M207.53,91.77c-0.1,0.38-0.94,0.19-0.94-0.19C206.9,91.4,207.21,91.77,207.53,91.77z
			 M207.42,88.59c0-0.09,0.1-0.19,0.21-0.28c-0.11-0.09-0.32-0.19-0.53-0.19c0.21,0.28,0.11,0.56,0.42,0.66
			c0.11,0.19-0.1,0.28-0.1,0.47c-0.53,0-0.63-0.19-0.84-0.56c0.1-0.09,0.31-0.09,0.52-0.09c-0.1-0.19-0.52-0.19-0.63-0.47
			c0.42-0.19,1.16-0.47,1.58,0c-0.11,0.09-0.11,0.19-0.32,0.19c0.11,0.09,0.32,0,0.32,0.19C207.95,88.77,207.63,88.77,207.42,88.59z
			 M208.47,90.46c-0.32,0.09-0.32-0.09-0.53-0.19C208.05,89.99,208.68,90.37,208.47,90.46z M209.52,91.96
			c0.11-0.19,0.32,0.09,0.42-0.09c0.21,0,0.32,0.28,0.21,0.38C209.84,92.24,209.52,92.15,209.52,91.96z M210.05,95.15
			c0-0.38,0.63-0.38,0.63,0C210.57,95.24,210.15,95.24,210.05,95.15z M210.68,102.93c0-0.47,0.63-0.37,0.63,0.09
			C210.99,103.21,210.78,103.02,210.68,102.93z M214.25,89.99c-0.21-0.38-0.21-1.03,0.42-0.84c0,0.19,0,0.28,0.11,0.47
			C214.46,89.62,214.56,89.99,214.25,89.99z M215.82,90.18c0-0.28,0.63-0.19,0.63,0.09C216.14,90.46,215.93,90.27,215.82,90.18z
			 M180.17,104.33c0.85,0,1.13,0.67,1.13,1.45c0,6.48-6.69,11.96-9.14,11.96c-1.13,0-2.64-0.89-3.58-2.46
			C172.53,108.69,176.97,104.33,180.17,104.33z M111.07,44.26c-0.21-0.09-0.42-0.19-0.53-0.38
			C111.17,43.32,111.59,43.6,111.07,44.26z M103.09,86.71c0.31-0.56,1.26,0,1.57-0.28c0.31,0.09,0.31,0.56,0.63,0.56
			c0,0.28-0.1,0.66-0.42,0.66c-0.1-0.09-0.21-0.38,0-0.47c-0.21-0.19-0.63-0.09-0.63-0.38c-0.1,0.19-0.42,0.28-0.73,0.28
			C103.41,86.9,103.3,86.81,103.09,86.71z M104.56,81.37c0.52,0.09,0.42,0.66,0.84,0.75c0,0.28-0.31,0.28-0.31,0.56
			c-0.21-0.09-0.31-0.09-0.42,0.09C104.14,82.59,104.46,81.74,104.56,81.37z M103.83,90.37l0.21-0.09c0.21,0,0.31,0.28,0.52,0.38
			c0.1-0.09,0.1-0.28,0.31-0.38c0.21,0.09,0.31,0.28,0.63,0.09c0.21,0.09-0.21,0.38,0.1,0.47c-0.31,0.47-0.63,0-0.94-0.09
			S103.72,90.84,103.83,90.37z M105.09,91.59c0.21-0.19,0.42-0.28,0.52-0.66c0.84,0.19,0.63,1.12,0.73,1.97
			C105.72,92.99,105.82,91.68,105.09,91.59z M106.45,68.44c-0.1-0.19,0.21-0.47,0.21-0.75C106.98,67.78,106.98,68.53,106.45,68.44z
			 M107.29,69.65c0.21,0.09,0.42,0.47,0.31,0.56l-0.84-0.28C106.77,69.56,107.19,69.84,107.29,69.65z M106.98,70.5
			c-0.21,0.28-0.73,0-0.73-0.28C106.56,70.03,106.77,70.31,106.98,70.5z M107.19,72.19c-0.52-0.28-0.84-0.47-0.73-1.12
			c0.52,0.09,0.42,0.66,1.05,0.75C107.5,72,107.29,72.09,107.19,72.19z M107.82,74.43c0.1,0,0.1,0.09,0.21,0.09
			c0.21,0.28,0,0.66-0.21,0.75c-0.21,0-0.21-0.19-0.31-0.19C107.4,74.81,107.71,74.72,107.82,74.43z M106.56,73.31
			c-0.63-0.56,0.31-1.41,0.73-0.66c-0.1,0.19-0.21,0.19-0.42,0.09C106.98,73.03,106.98,73.31,106.56,73.31z M106.98,89.43
			c-0.1,0.28,0.1,0.37,0.1,0.66c0.31,0,0.42-0.19,0.63,0.09c-0.1,0.28-0.52,0.28-0.94,0.38c-0.1-0.66-1.15-0.75-0.84-1.59
			C106.45,88.96,106.56,89.43,106.98,89.43z M107.08,93.27c-0.1,0.09-0.1,0.28-0.21,0.47c-0.21,0-0.31,0-0.42-0.09
			C106.45,93.27,106.87,93.08,107.08,93.27z M107.19,98.8c-0.42,0.09-0.52-0.09-0.52-0.37c0.1-0.09,0.52-0.09,0.63,0.09
			C107.29,98.71,107.19,98.71,107.19,98.8z M107.19,96.65c-0.84,0-0.1-1.12,0.21-0.66C107.29,96.27,107.19,96.36,107.19,96.65z
			 M107.29,90.84c0-0.28,0.42-0.19,0.52-0.47c0.21,0.09,0.21,0.28,0.21,0.47C107.82,91.02,107.61,91.12,107.29,90.84z M109.07,98.33
			c-0.21,0.09-0.21,0.28-0.42,0.28c-0.1-0.47-0.73-0.28-0.84-0.56c0.1-0.28,0.73-0.09,0.84,0.09c0.31-0.09,0.31-0.47,0.73-0.38
			c0.21,0.19-0.21,0.28-0.21,0.47c0.21,0.19,0.52-0.28,0.73,0.09C109.91,98.52,109.07,98.8,109.07,98.33z M110.23,71.53
			c0.1,0.19,0,0.38-0.1,0.56c-0.21-0.09-0.32-0.38-0.42-0.47C109.7,71.34,110.12,71.44,110.23,71.53z M109.18,70.87
			c-0.1,0.38,0.1,0.66,0.31,0.94c-0.1,0.09-0.21,0.09-0.42,0.09c-0.1-0.19-0.1-0.47-0.21-0.56c-0.31-0.09-0.1,0.28-0.52,0.19
			c-0.1-0.19,0.42-0.37,0.1-0.66C108.65,70.69,108.97,70.69,109.18,70.87z M108.34,70.97c-0.1,0.38-0.1,0.84-0.31,1.12
			c-0.21-0.19-0.42-0.56-0.31-0.75c0.1-0.19-0.63-0.09-0.94-0.38c0.1-0.19,0.1-0.47,0.42-0.47c0,0.28,0.21,0.47,0.42,0.56
			c0.21,0,0-0.28,0.21-0.38L108.34,70.97z M107.92,53.25c0,0.66-1.36,1.12-2.1,1.31C106.14,53.91,107.08,53.72,107.92,53.25z
			 M105.61,79.12c0,0.28-0.1,0.28-0.21,0.38c-0.31,0.09-0.21-0.28-0.42-0.28C104.98,79.03,105.51,79.03,105.61,79.12z M104.88,76.59
			c-0.31,0-0.21-0.09-0.42-0.09c-0.1-0.19-0.1-0.66,0-0.84h0.31C104.77,75.93,104.98,76.31,104.88,76.59z M104.67,55.5
			c0.1,0.66-0.94,0.56-1.05,1.41c-0.21,0-0.42-0.09-0.63,0C103.83,56.16,103.83,56.35,104.67,55.5z M87.24,50.26
			c0.1-0.09,0.42,0,0.63,0.09C87.87,50.72,87.24,50.63,87.24,50.26z M94.06,88.21c-0.31,0-0.42-0.19-0.52-0.28
			c0.1-0.28-0.1-0.28-0.1-0.56c0.31-0.19,0.52,0.09,0.73,0.09C94.27,87.84,94.17,88.02,94.06,88.21z M93.96,59.53
			c0,0-0.1-0.09-0.21-0.09c0-0.38,0.52-0.38,0.52,0C94.06,59.44,94.17,59.63,93.96,59.53z M73.18,94.96
			c0.21,0.09,0.42,0.47,0.31,0.66C73.18,95.52,72.97,95.24,73.18,94.96z M64.26,69.75c0,0.28-0.42,0.09-0.52,0
			C63.84,69.47,64.15,69.56,64.26,69.75z M61.84,70.22c-0.21,0.28-0.73,0.09-0.73-0.19C61.32,69.94,61.63,70.12,61.84,70.22z
			 M68.35,46.04c-0.21,0.38-0.73,0.09-0.73-0.28C67.93,45.57,68.14,45.94,68.35,46.04z M68.03,48.01c-0.1,0.19-0.52,0.28-0.63,0.09
			C67.4,47.91,67.93,47.91,68.03,48.01z M67.82,54.38c0,0.19-0.1,0.28-0.1,0.38c-0.31,0-0.42-0.19-0.42-0.38
			c-0.21,0-0.1,0.19-0.42,0.09c0-0.38-0.52-0.75-0.31-1.22h0.31C66.98,53.82,67.19,54.28,67.82,54.38z M66.67,52.69
			c-0.21,0.19-0.42-0.28-0.52-0.38C66.25,52.04,66.88,52.5,66.67,52.69z M65.2,52.88c0.1,0.66,0.63,1.22,0.63,1.69
			c-0.73-0.09-0.84-1.12-0.84-1.69H65.2z M64.68,54.1c0.31,0.09,0.52,0.56,0.42,0.84C64.78,54.75,64.47,54.28,64.68,54.1z
			 M64.57,55.6c-0.42,0.09-0.52-0.47-0.31-0.66C64.47,55.03,64.68,55.41,64.57,55.6z M63.84,54.1c0.21,0.09,0.42,0.28,0.42,0.56
			c-0.1,0.09-0.1,0.28-0.42,0.28C63.73,54.66,63.84,54.28,63.84,54.1z M31.19,77.34c0-0.09-0.1-0.19-0.1-0.19
			c-0.1-0.28,0.52-0.28,0.52,0C31.4,77.25,31.4,77.34,31.19,77.34z M31.61,60.75c0.52,0,0.42,0.75,0,0.66
			C31.4,61.22,31.51,60.94,31.61,60.75z M31.93,86.62c-0.31-0.09-0.42-0.28-0.21-0.56C32.03,86.06,32.03,86.52,31.93,86.62z
			 M32.35,84.09c-0.42,0.09-0.42-0.38-0.21-0.47C32.24,83.62,32.56,83.9,32.35,84.09z M36.13,66.66c-0.31,0-0.42-0.38-0.21-0.56
			C36.13,66.09,36.23,66.47,36.13,66.66z M26.47,94.96c0.31-0.47,0.84,0,1.05,0.28C27.2,95.61,26.68,95.15,26.47,94.96z M28.36,92.8
			c-0.1,0.09-0.42,0-0.52-0.09C27.83,92.52,28.46,92.52,28.36,92.8z M38.22,97.4c0.21,0,0.31,0.38,0.1,0.56
			C38.12,97.96,38.12,97.58,38.22,97.4z M38.12,97.49c-0.21,0.09-0.31,0-0.42-0.09c-0.21,0.09,0.21,0.09,0.1,0.28
			c-0.31,0.19-0.63,0-0.63-0.28C37.49,97.4,37.8,96.93,38.12,97.49z M37.8,98.99c-0.21,0.09-0.1,0.19-0.21,0.28
			c-0.42,0-0.73-0.47-0.73-0.75C37.38,98.52,37.28,98.99,37.8,98.99z M37.07,100.11c-0.21,0.28-0.52-0.09-0.73-0.28
			C36.54,99.55,37.17,99.83,37.07,100.11z M32.66,97.02c0.21-0.19,0.42,0,0.52,0.09C33.08,97.4,32.56,97.4,32.66,97.02z
			 M32.45,97.86c-0.1,0.09-0.1,0.19-0.21,0.19c-0.21,0-0.31-0.19-0.42-0.28c-0.1,0-0.1,0.09-0.21,0.09
			c0.21,0.19,0.52,0.28,0.52,0.56c-0.31,0-0.1,0.09-0.21,0.37c-0.31-0.09-0.42-0.19-0.42-0.37c0.1,0,0.1-0.09,0.21-0.09
			c-0.1-0.19-0.31-0.28-0.42-0.38c0-0.19,0.1-0.19,0.21-0.28c-0.1-0.09-0.63-0.19-0.42-0.47c0.21,0,0.31,0.09,0.42,0.19
			c0.1,0,0.1-0.09,0.31-0.09c-0.21-0.19,0-0.38,0.21-0.38c0,0.47,0.84,0.38,0.63,0.75c0.21,0,0.21-0.28,0.42-0.28
			c0.1,0.28-0.1,0.66-0.42,0.66C32.45,98.15,32.45,98.05,32.45,97.86z M32.56,98.61c0.52,0,1.05,0.09,1.26,0.47
			C33.5,99.27,32.77,98.9,32.56,98.61z M33.82,98.05c0.21,0.09,0.42,0.09,0.52,0.38C34.03,98.71,33.61,98.24,33.82,98.05z
			 M34.66,97.02c-0.21,0-0.31-0.28-0.52-0.28c0-0.19,0.21-0.19,0.31-0.28C34.66,96.55,34.87,96.83,34.66,97.02z M35.08,100.68
			c0.21-0.19,0.52,0,0.63,0.28C35.5,101.05,35.08,100.96,35.08,100.68z M35.92,99.27c-0.1-0.09-0.52-0.09-0.63-0.38
			C35.6,98.71,36.13,99.08,35.92,99.27z M35.92,98.61c0.1-0.09-0.1-0.19-0.1-0.37c0.1-0.09,0.1,0,0.31,0c0-0.09-0.1-0.19-0.1-0.28
			c-0.31,0.28-0.52-0.19-0.73-0.47c0.63-0.28,0.94,0.38,1.15,0.56c0,0.19-0.21,0.28,0,0.38c0,0.09-0.1,0.09-0.21,0.19
			c0.21,0.09,0.63,0.19,0.42,0.56C36.23,98.99,36.13,98.61,35.92,98.61z M36.86,102.36c-0.31-0.19-0.52-0.28-0.73-0.47
			c0.31-0.19,0.21-0.19,0.21-0.47C36.96,101.43,36.96,102.08,36.86,102.36z M37.59,100.77c-0.42,0-0.42-0.38-0.63-0.47
			C37.07,100.02,37.8,100.58,37.59,100.77z M37.7,99.27c0.31,0,0.31,0.19,0.42,0.47C37.91,99.93,37.49,99.46,37.7,99.27z
			 M37.28,98.33c0.1,0,0.1-0.19,0.31-0.09c0,0.47,0.52,0.37,0.63,0.75C37.8,99.08,37.38,98.71,37.28,98.33z M38.22,98.71
			c-0.31-0.09-0.42-0.28-0.52-0.56C38.01,97.96,38.54,98.43,38.22,98.71z M38.64,98.52c-0.21-0.09-0.42-0.09-0.42-0.37
			c0.1,0,0.21-0.09,0.42-0.09C38.75,98.15,38.75,98.43,38.64,98.52z M48.2,91.87c0.31,0.09,0.73,0.09,0.73,0.47
			c-0.31,0.19-0.63,0-0.84-0.09C48.09,92.05,48.09,91.96,48.2,91.87z M62.68,55.32c0.21,0.19,0.42,0.38,0.52,0.56
			c0,0.09-0.1,0.09-0.1,0.19C62.79,56.07,62.47,55.6,62.68,55.32z M62.47,56.16c0.31,0.09,0.52,0.37,0.31,0.75
			C62.47,56.91,62.26,56.35,62.47,56.16z M61.53,66c0-0.28-0.1-0.56,0-0.66c0.52,0.09,0.31,0.56,0.63,0.84
			C61.84,66.37,61.74,66,61.53,66z M61.95,48.76c0,0.37-0.73,0.47-1.05,0.19C60.9,48.47,61.74,48.85,61.95,48.76z M60.16,46.69
			c0.31-0.19,0.73,0.09,0.84,0.38C60.69,47.26,59.95,46.88,60.16,46.69z M59.74,50.26h0.21c0.1,0.19,0,0.28,0.31,0.37
			c0,0.19-0.1,0.28-0.1,0.47c-0.21-0.28-0.73-0.19-1.05-0.28C59.11,50.35,59.64,50.72,59.74,50.26z M58.8,57.47
			c0,0.38-0.73,0.28-0.94,0.09C57.96,57.28,58.69,57.1,58.8,57.47z M57.22,43.69c-0.21,0.09-0.73,0-0.84-0.28
			C56.7,43.23,57.22,43.41,57.22,43.69z M57.54,46.32c-0.21,0.38-0.52,0.09-0.84,0.09c-0.1-0.09-0.21-0.38,0-0.56
			C56.91,46.04,57.22,46.22,57.54,46.32z M56.49,49.79c0.21,0,0.42,0.47,0.1,0.56C56.28,50.35,56.38,49.88,56.49,49.79z
			 M57.12,52.69c-0.42,0.19-1.05,0-1.15-0.38C56.38,52.22,57.01,52.32,57.12,52.69z M56.17,46.22c-0.21,0.19-0.42-0.19-0.63-0.19
			C55.65,45.66,56.28,45.94,56.17,46.22z M55.02,51c0.1-0.38,0.63-0.09,0.84,0c0,0.09-0.21,0.09-0.21,0.28
			C55.33,51.19,55.23,51.1,55.02,51z M55.65,60.94c-0.21,0.09-0.52-0.19-0.52-0.47C55.33,60.38,55.65,60.66,55.65,60.94z
			 M54.6,49.13c0.42,0,0.52,0.56,0.52,0.75C54.6,49.88,54.39,49.41,54.6,49.13z M55.33,43.04c0.31,0,0.42,0.09,0.63,0.19
			c-0.1,0.19-0.31,0.28-0.52,0.28C55.44,43.41,55.23,43.23,55.33,43.04z M54.81,43.13c0.21,0,0.31,0.09,0.52,0.19
			C55.23,43.6,54.39,43.41,54.81,43.13z M54.6,48.01c-0.21,0.56-1.05,0-1.36-0.19C53.44,47.63,54.18,47.91,54.6,48.01z M53.76,50.35
			c-0.31,0-0.31-0.28-0.52-0.38C53.34,49.6,54.07,49.97,53.76,50.35z M53.44,48.94c-0.1,0.38-0.63,0.19-0.63-0.19
			C53.02,48.57,53.34,48.85,53.44,48.94z M52.39,42.66c-0.1,0.19-0.52,0.09-0.84,0.09c0-0.09-0.1-0.09-0.1-0.28
			C51.77,42.48,52.19,42.38,52.39,42.66z M50.82,49.22c0.21,0,0.31,0.09,0.31,0.38c-0.1,0-0.21,0.09-0.31,0.09
			C50.72,49.6,50.72,49.32,50.82,49.22z M49.77,53.82c0.21-0.19,0.42,0.09,0.52,0.19c0,0.19-0.42,0.09-0.52,0V53.82z M49.67,54.19
			c0,0.38-0.42,0.09-0.52,0C49.14,54,49.67,54,49.67,54.19z M49.04,54.75c0.1-0.28,0.63-0.19,0.63,0
			C49.67,54.94,49.25,54.75,49.04,54.75z M49.14,55.78c-0.21,0.19-0.63-0.19-0.52-0.38C48.83,55.5,49.14,55.5,49.14,55.78z
			 M48.41,42.2c0.31,0,0.73,0.28,0.73,0.56c-0.42,0-0.73-0.09-0.94-0.28C48.2,42.29,48.3,42.29,48.41,42.2z M48.72,55.78
			c0.1,0,0.21,0.09,0.21,0.19c-0.21,0.19-0.73,0.28-0.94,0.09C47.99,55.6,48.51,55.97,48.72,55.78z M46.52,52.79
			c0.31,0.09,0.63,0.19,0.84,0.47C47.15,53.63,46.31,53.07,46.52,52.79z M46.1,41.07c0.31,0.09,0.1,0.56-0.21,0.56
			C45.68,41.35,45.89,41.16,46.1,41.07z M45.89,41.73c-0.1,0.19-0.73,0.09-0.73-0.19C45.47,41.35,45.68,41.63,45.89,41.73z
			 M43.68,48.47c0.21-0.09,0.31,0,0.31,0.19c0.1,0,0.21-0.09,0.21-0.19c0.1,0.09,0.21,0.19,0.21,0.38c0.21-0.09,0.42-0.09,0.63,0
			c0-0.09,0.1-0.09,0.1-0.19c0.31,0,0.52,0.09,0.63,0.37c-0.21,0.09-0.52-0.09-0.73-0.19c0.1,0.09,0,0.09-0.1,0.28
			C44.52,48.85,43.47,49.22,43.68,48.47z M44.63,54.28c0,0.28-0.31,0.28-0.42,0.47l-0.84-0.28c0-0.28,0.1-0.28,0.1-0.47
			C43.89,54.1,44.42,54.1,44.63,54.28z M44.21,62.25c-0.1,0-0.21-0.09-0.31-0.09c0-0.19,0.1-0.28,0.1-0.47
			C44.42,61.69,44.42,62.16,44.21,62.25z M43.37,44.82c-0.52-0.09-0.73-0.37-0.94-0.75C42.74,43.69,43.47,44.54,43.37,44.82z
			 M41.48,40.04l-0.52-0.28C41.06,39.48,41.79,39.66,41.48,40.04z M41.58,41.16c0.1,0.09,0.1,0.37,0,0.47c-0.31,0-0.31-0.19-0.52,0
			c0.31,0.09,0.63,0.38,1.05,0.47c0,0.19-0.31,0.09-0.42,0.28c-0.1,0.28,0.31,0.19,0.21,0.47c0,0-0.1,0.09-0.31,0.09
			c0.1,0.56,0.73,0.66,0.84,1.22c-1.05-0.19-1.15-1.78-1.89-2.44c0-0.09,0.1-0.19,0.21-0.19c-0.21-0.09-0.63-0.09-0.63-0.37
			C40.74,40.88,41.16,41.35,41.58,41.16z M41.48,47.44c0-0.28,0.21-0.38,0.52-0.38c0.1,0.19,0.1,0.38,0.42,0.38
			c-0.21,0.28-0.42,0.66-0.73,0.56C41.79,47.63,41.69,47.63,41.48,47.44z M36.23,38.91c-0.21,0.19-0.52,0-0.52-0.28
			C35.92,38.45,36.23,38.73,36.23,38.91z M33.4,42.66c0.31,0,0.52,0.37,0.31,0.56c-0.31,0-0.31-0.19-0.52-0.28
			C33.19,42.85,33.4,42.76,33.4,42.66z M31.93,42.94c-0.1,0.19-0.42,0.19-0.63,0C31.4,42.66,31.72,42.85,31.93,42.94z M31.93,49.13
			c-0.21,0.19-0.52-0.09-0.52-0.28C31.61,48.66,31.93,48.85,31.93,49.13z M30.56,44.91c0.1-0.09,0.52,0,0.52,0.28
			C30.88,45.38,30.56,45.19,30.56,44.91z M31.09,52.5c0-0.19,0.52-0.09,0.52,0.19C31.4,52.88,31.09,52.69,31.09,52.5z M31.61,49.51
			c0.1-0.09,0.52,0,0.52,0.19C31.93,49.88,31.51,49.79,31.61,49.51z M33.08,48.76c0.21-0.09,0.52,0,0.73,0.09
			C33.71,49.13,33.08,49.13,33.08,48.76z M34.03,46.04c-0.21-0.09-0.42-0.19-0.42-0.37c0.21-0.09,0.52-0.09,0.63,0.09L34.03,46.04z
			 M34.66,40.04c0.31-0.09,0.84,0.09,0.84,0.47C35.18,40.6,34.66,40.41,34.66,40.04z M35.6,40.23c0.1-0.28,0.63,0,0.73,0.19
			C36.13,40.7,35.71,40.41,35.6,40.23z M36.33,38.54c0.1-0.28,0.52-0.09,0.73,0c-0.1,0.38,0.21,0.38,0.21,0.75
			C36.86,39.38,36.65,38.73,36.33,38.54z M37.07,39.48c0.73,0.09,0.63,0.84,1.05,0.84c0,0.28,0.21,0.28,0,0.38
			C37.59,40.51,36.96,40.04,37.07,39.48z M37.91,41.91c0.1-0.28-0.1-0.38-0.1-0.56c0.94-0.28,0.63,0.94,1.57,0.94
			c-0.1,0.38-0.21,0.47-0.21,0.75c-0.42-0.09-0.52-0.37-0.73-0.66c0.1-0.09,0.1-0.09,0.21-0.09C38.64,42.01,38.12,42.1,37.91,41.91z
			 M39.69,50.91c0.21,0.09,0.31,0.28,0.52,0.38C40.11,51.75,39.17,51.19,39.69,50.91z M39.59,44.07c0.1,0.47,0.63,0.56,0.52,1.12
			c-0.63,0-0.42-0.66-0.94-0.75c0.1-0.09,0.1-0.28,0.21-0.47c-0.52,0.09-0.73-0.09-0.84-0.38c0.52-0.19,1.26,0,1.68,0.19
			C40.11,43.98,39.9,43.98,39.59,44.07z M40.32,45.94c0.21-0.09,0.52-0.09,0.52,0.19C40.64,46.32,40.32,46.13,40.32,45.94z
			 M40.74,51.47c0-0.28,0.52-0.09,0.52,0.09C41.06,51.75,40.85,51.57,40.74,51.47z M41.06,48.47c0.21,0,0.21,0.09,0.31,0.09
			c0.21-0.09-0.1-0.28-0.21-0.38c0.42,0,0.94,0.28,1.78,0c0.1,0.19,0.1,0.38,0,0.56c-0.63-0.28-0.84,0.09-1.36-0.09
			c-0.1,0.28,0.42,0.09,0.31,0.37c0,0.09-0.31,0.09-0.42,0.09C41.27,49.04,40.95,48.66,41.06,48.47z M41.48,54.94
			c0-0.09,0.42-0.28,0.52-0.09c0.21-0.09-0.21-0.28-0.21-0.47c0.21-0.09,0.42,0.28,0.73,0c0.31,0,0.21,0.19,0.42,0.28
			c0,0.19-0.1,0-0.42,0.09c0.1,0.19,0.42,0.09,0.52,0.19C42.74,55.6,41.79,54.94,41.48,54.94z M42,60.38c0,0.19,0.21,0.38,0.1,0.56
			c-0.31-0.09-0.52-0.19-0.52-0.47C41.69,60.38,41.79,60.38,42,60.38z M41.79,60.94c0.1,0.09,0.31,0.09,0.31,0.38
			c-0.1,0.09-0.42,0.09-0.52,0C41.58,61.22,41.69,61.13,41.79,60.94z M42.11,86.52c0.31,0.09,0.52,0.28,0.63,0.56
			C42.53,87.18,42,86.81,42.11,86.52c-0.31,0-0.94-0.37-1.05-0.75C41.37,85.87,41.9,86.15,42.11,86.52z M41.9,76.12
			c0-0.28,0.31-0.37,0.52-0.19C42.53,76.22,42.11,76.31,41.9,76.12z M42.63,79.03c0,0.09-0.21,0.09-0.21,0.28
			c-0.31,0-0.21-0.19-0.42-0.28C42,78.84,42.53,78.93,42.63,79.03z M42.84,96.65c0.1,0,0.1,0.09,0.21,0.09
			c0,0.28-0.21,0.28-0.42,0.37c-0.1-0.09-0.1-0.28-0.21-0.28C42.42,96.55,42.84,96.93,42.84,96.65z M39.17,84.37
			c0.42,0.28,0.94,0.47,1.15,0.84C40.11,85.4,39.17,84.65,39.17,84.37z M40.32,100.3c-0.31,0-0.63-0.38-0.42-0.56
			C40.22,99.74,40.53,100.02,40.32,100.3z M39.8,98.61c0.31-0.19,0.63,0.09,0.63,0.38C40.22,99.08,39.9,98.9,39.8,98.61z
			 M39.69,98.24c0.31-0.28,1.15,0.09,1.26,0.56C40.64,98.8,40.11,98.43,39.69,98.24z M41.06,98.61c0.21,0,0.63,0.09,0.63,0.47
			C41.37,99.27,41.16,98.9,41.06,98.61z M41.37,98.43c0-0.09,0.1-0.19,0.21-0.19c-0.1-0.28-0.52-0.19-0.52-0.47
			c0.21-0.28,0.84,0,0.84,0.19c0.1,0.19-0.1,0.28-0.1,0.38c0,0.19,0.42,0.19,0.31,0.47C41.79,98.99,41.58,98.61,41.37,98.43z
			 M42.74,101.99c-0.31,0-0.52-0.38-0.31-0.56C42.74,101.43,43.05,101.8,42.74,101.99z M42.95,99.27c-0.21-0.28-0.21-0.84-0.73-0.84
			c0.42-0.38,0.84,0.37,1.26,0.56C43.37,99.18,43.05,99.18,42.95,99.27z M42.74,97.68l-0.42-0.28c0.1,0.28,0.52,0.28,0.63,0.66
			c-0.1,0.09-0.42,0-0.63,0c-0.1-0.38-0.63-0.47-0.63-0.94c0.21-0.19,0.31-0.09,0.42-0.19c0.31,0,0.42,0.19,0.63,0.38
			c0.21,0,0.1-0.19,0.31-0.19c0.31,0,0.31,0.09,0.42,0.38C43.16,97.49,43.05,97.68,42.74,97.68z M43.58,87.74
			c-0.42,0-0.52-0.38-0.84-0.56C42.95,86.9,43.68,87.56,43.58,87.74z M43.89,87.93c0.84,0.47,1.89,1.03,2.31,1.69
			C45.36,89.15,44.21,88.59,43.89,87.93z M53.65,76.12c-0.21,0.09-0.31-0.09-0.42-0.09c0.1-0.19-0.42-0.19-0.1-0.47
			c0.31,0.09,0.31,0.28,0.63,0.28C53.55,75.93,53.76,76.03,53.65,76.12z M53.23,71.53c0.21-0.19,0.52,0.09,0.52,0.38
			C53.65,72,53.34,71.72,53.23,71.53z M56.28,68.81c0.1-0.09,0.21-0.28,0.42-0.28c-0.21-0.28-0.73-0.19-0.73-0.56
			c0.1-0.09,0.21-0.09,0.42-0.09c0,0.38,0.63,0.28,0.63,0.66C56.8,68.44,56.7,69.09,56.28,68.81z M56.17,63.66
			c0,0.47-0.1,1.41,0,2.34c-1.05,0.09-1.78,0.38-2.73,0.56l-0.31,0.66c-0.84-0.47-1.15,0.47-1.36,1.03
			c-0.31,0.09-0.31-0.09-0.42-0.09c-0.1,0.09-0.1,0.28-0.21,0.37c-0.84,0.19-1.36,1.22-2.2,1.59c0.1,0.19,0.21,0.19,0.21,0.38
			c-0.63,0.09-0.63,0.75-0.42,1.12c-0.21-0.09-0.94,0-0.94-0.37c-0.21,0.09-0.1,0.47-0.21,0.56c-0.42,0.09-0.94-0.09-0.94,0.28
			c-1.26-0.19-1.78,0.84-2.83,1.03c-0.1,0,0.1,0.28,0,0.38c-0.31,0-0.31-0.19-0.52-0.19c0.1,0.56,0.84,1.03,0.52,1.69
			c-0.42,0-0.52-0.56-0.21-0.38c0-0.28-0.73-0.66-0.73-1.12c-0.52,0-0.52,0.75-1.05,0.56c0.1-0.56,0.42-0.94,0.94-1.22
			c2.2,0,3.25-1.87,5.14-2.25l0.21-13.96l5.14,1.22l0.94,2.25c0.42,0.09,0.42-0.28,0.63,0c0.1,0.28-0.1,0.38-0.31,0.38
			c0.31,1.03,0.73,2.06,1.15,2.91C55.96,63.47,56.28,63.19,56.17,63.66c0.21-0.19,0.63-0.19,0.63-0.47
			c0.52,0.28,1.26,0.56,1.15,1.03C57.43,64.22,56.91,63.75,56.17,63.66z M57.75,100.21c-0.31,0-0.42-0.19-0.52-0.37
			C57.54,99.65,57.96,99.93,57.75,100.21z M57.85,99.93c-0.1-0.28-0.31-0.47-0.21-0.66C58.06,99.18,58.17,99.93,57.85,99.93z
			 M60.27,83.9c-0.21-0.09-0.31-0.09-0.31-0.28c0-0.09,0.21-0.09,0.21-0.19C60.37,83.43,60.37,83.81,60.27,83.9z M60.79,102.64
			c-0.31-0.09-0.31-0.75-0.31-0.84C60.9,101.89,61.21,102.46,60.79,102.64z M61.84,84.65c-0.1-0.19,0-0.66,0-0.94
			C62.26,83.81,62.37,84.74,61.84,84.65z M65.52,97.96c0.1,0,0.21,0.09,0.31,0.09c-0.21,0.28,0.1,0.38,0,0.56
			c-0.21,0-0.42,0-0.42-0.09C65.41,98.33,65.41,98.15,65.52,97.96z M65.52,99.27c-0.31-0.19,0.1-0.56,0.42-0.38
			C66.04,99.27,65.83,99.27,65.52,99.27z M66.15,85.31c0-0.19-0.1-0.38,0-0.47c0.21,0,0.31,0.09,0.52,0.19
			C66.57,85.12,66.46,85.31,66.15,85.31z M67.51,98.71c-0.21-0.28,0-0.84,0.42-0.56C67.93,98.52,67.82,98.71,67.51,98.71z
			 M100.99,43.6l1.68,0.47c-0.31,0.28-0.63,0.09-1.05,0.19c-0.1-0.19,0-0.19-0.21-0.38c-0.21,0.09-0.1,0.28-0.42,0.19
			C100.89,43.98,100.89,43.79,100.99,43.6z M96.69,40.79c-0.42,0-0.52-0.47-0.84-0.56C96.06,39.95,96.9,40.51,96.69,40.79z
			 M95.43,39.57c0.21,0.09,0.52,0.37,0.42,0.47c-0.31,0-0.63-0.09-0.63-0.28C95.32,39.66,95.43,39.66,95.43,39.57z M95.11,43.23
			c-0.1,0.09-0.1,0-0.31,0c0.21,0.19,0.63,0.38,0.42,0.56c-0.31,0-0.42-0.28-0.73-0.28c0.1-0.38-0.31-0.28-0.42-0.38
			C94.17,42.76,95.32,42.66,95.11,43.23z M94.59,41.63c0-0.56,0.94-0.37,0.94,0C95.22,41.63,94.9,41.73,94.59,41.63z M93.75,44.16
			c0.31-0.19,1.05,0.19,0.84,0.47l-0.84-0.28V44.16z M92.49,42.38c0.21-0.09,0.52,0.09,0.52,0.28c-0.1,0.09-0.31,0-0.52,0V42.38z
			 M93.23,43.13c-0.21,0.38-0.52,0.19-0.73,0C92.6,42.94,93.02,43.04,93.23,43.13z M93.23,44.07c-0.1,0.28-0.63,0.19-0.84,0
			C92.49,43.79,92.91,43.88,93.23,44.07z M92.6,45.76c-0.1,0.28-0.63,0.19-0.73,0C91.97,45.48,92.39,45.66,92.6,45.76z M91.86,46.97
			c-0.42,0-0.42-0.38-0.84-0.47C91.34,46.13,92.18,46.69,91.86,46.97z M91.86,45.48c-0.21,0.19-0.52,0-0.63-0.19
			C91.34,45.1,91.97,45.19,91.86,45.48z M91.02,45.85c-0.1,0.19-0.42,0-0.42-0.28C90.81,45.48,91.13,45.57,91.02,45.85z
			 M89.87,47.44c0.31,0.19,1.26,0.19,1.15,0.66C90.5,48.1,89.76,47.82,89.87,47.44z M90.81,48.29c0.21-0.09,0.52,0,0.52,0.28
			C91.23,48.57,90.81,48.57,90.81,48.29z M92.39,49.88c-0.31,0-0.52-0.09-0.84-0.19C91.65,49.32,92.6,49.6,92.39,49.88z M92.7,46.51
			c-0.21,0-0.52-0.19-0.31-0.47C92.7,46.04,92.91,46.32,92.7,46.51z M93.54,50.91c-0.21,0-0.31,0.09-0.63-0.09v-0.37
			c0.31,0.09,0.42,0.19,0.63,0.19V50.91z M92.91,48.19c0.21-0.19,0.73,0.09,0.52,0.28S92.91,48.38,92.91,48.19z M92.91,45.29
			c0.42,0.19,1.15,0.47,1.15,0.84C93.54,46.04,92.91,45.66,92.91,45.29z M94.9,46.04c-0.21,0-0.52-0.09-0.52-0.28
			c-0.21,0.09-0.52-0.09-0.52-0.28c0.21-0.19,0.63,0,0.52,0.28c0.21-0.19,0.52-0.09,0.73,0L94.9,46.04z M93.44,44.82
			c0.1,0.28-0.42,0.66-0.63,0.28C92.91,44.91,93.12,44.82,93.44,44.82c-0.1,0-0.21-0.09-0.31-0.19c-0.31,0-0.21,0.38-0.42,0.28
			c-0.1-0.09-0.21-0.19-0.21-0.38c0.63-0.28,1.47,0.09,1.78,0.47c0.52-0.28,0.94,0.09,1.57,0.09
			C95.32,45.76,94.17,45.29,93.44,44.82z M96.16,42.38c-0.31-0.09-0.63-0.09-0.63-0.47c0.21-0.19,0.42,0.09,0.63,0
			C96.27,42.01,96.16,42.29,96.16,42.38z M96.06,41.26c-0.42-0.28-1.15-0.19-1.47-0.56c0.21-0.28,0.84,0.19,0.94-0.28
			c0.52,0.09,0.52,0.28,0.94,0.56C96.48,41.07,96.27,41.16,96.06,41.26z M97.11,42.94c-0.31-0.09-0.52-0.19-0.52-0.37
			C96.9,42.29,97.32,42.76,97.11,42.94z M97.53,43.13c-0.21-0.09,0-0.28,0-0.37c0.21,0,0.21,0.09,0.31,0.19
			C97.74,43.04,97.74,43.23,97.53,43.13z M97,41.45c0.1-0.19,0.63-0.09,0.73,0c0,0.19-0.1,0.28-0.21,0.28
			c0,0.19,0.42,0.09,0.31,0.38C97.32,42.38,97.32,41.63,97,41.45z M97,40.98c0-0.28,0.42-0.19,0.52-0.09
			c0.31-0.09-0.42-0.38-0.31-0.56s0.31,0,0.52,0c0,0.28,0.21,0.28,0.42,0.47c-0.1,0.28-0.1,0.28,0.21,0.47
			C97.95,41.35,97.21,41.26,97,40.98z M98.16,42.01c0.21-0.28,0.84,0,1.05,0.19C98.89,42.48,98.37,42.2,98.16,42.01z M99,46.32
			c0.21-0.09,0.42,0,0.52,0.09C99.52,46.69,99,46.6,99,46.32z M99.21,44.26c0-0.28,0.52-0.09,0.73,0
			C99.84,44.54,99.31,44.44,99.21,44.26z M100.05,40.88c-0.21,0-0.31-0.09-0.42-0.19c0.1-0.38,0.42-0.19,0.31-0.56l0.84,0.28
			c0,0.19-0.42,0.28-0.52,0.09C100.05,40.51,100.15,40.79,100.05,40.88z M100.26,43.51c0.31,0,0.52,0.28,0.31,0.47
			C100.36,43.98,100.15,43.69,100.26,43.51z M100.26,44.54c0.1-0.28,0.84-0.28,0.84,0.09C100.89,44.73,100.36,44.73,100.26,44.54z
			 M274.6,91.59c-0.1,0.09-0.52,0-0.63-0.09v-0.38C274.29,91.21,274.5,91.3,274.6,91.59z M273.97,59.53c0.42,0,0.63,0.28,0.42,0.56
			C273.97,60.19,273.76,59.81,273.97,59.53z M273.13,59.53h0.32c0.1,0.09,0.1,0.47,0,0.56C273.03,60.19,272.92,59.72,273.13,59.53z
			 M273.03,54.85c0,0.19-0.21,0.28-0.21,0.47C271.77,55.13,272.5,54,273.03,54.85z M271.77,48.85c0.21-0.09,0.21,0,0.32,0
			c0,0.19,0,0.47-0.11,0.56C271.77,49.41,271.66,48.94,271.77,48.85z M271.45,52.32c0.31,0,0.42,0.09,0.63,0.19v0.75
			c-0.21,0-0.42,0.09-0.63,0.19c-0.11-0.28-0.32-0.28-0.63-0.38C271.14,52.88,271.35,52.6,271.45,52.32z M269.88,51.19
			c0.32,0.09,0.42,0.19,0.42,0.38c-0.1,0.19-0.42,0.19-0.63,0C269.67,51.38,269.88,51.38,269.88,51.19z M269.88,52.32
			c0.42,0.09,0.11,0.56,0.32,0.84c-0.11,0.09-0.42,0.09-0.53,0c0.11-0.09,0.32-0.56,0-0.66C269.56,52.32,269.88,52.41,269.88,52.32z
			 M270.09,88.59c-0.21-0.19-0.42-0.28-0.42-0.47c0-0.09,0.21-0.09,0.42-0.09C270.19,88.12,270.19,88.49,270.09,88.59z M269.88,54.1
			c-0.1,0,0,0.28-0.21,0.28s-0.21-0.19-0.31-0.28c0.21-0.28,0.84-0.38,1.36-0.56c0.32-0.09,0.11,0.38,0.21,0.56
			c-0.31,0.09-0.31,0.19-0.31,0.38C270.3,54.47,270.09,54.38,269.88,54.1z M271.03,87.84c-0.32,0-0.53-0.38-0.32-0.56
			C271.03,87.27,271.14,87.65,271.03,87.84z M270.51,88.59c0-0.28,0.32-0.38,0.42-0.56c0.21,0,0.21,0.28,0.32,0.38
			C271.14,88.59,270.82,88.77,270.51,88.59z M270.93,90.27c-0.1-0.28-0.52-0.19-0.63-0.47C270.61,89.62,271.14,89.8,270.93,90.27z
			 M269.88,89.8c0.11,0.28,0.21,0.47,0.53,0.56c-0.11,0.19-0.42,0.19-0.53,0.38c0.11,0.19,0.42,0.28,0.53,0.66
			c-0.53,0.19-0.63-0.75-0.84-0.66c0-0.47-0.21-0.66-0.21-0.94C269.56,89.8,269.67,89.9,269.88,89.8z M263.89,99.83
			c-0.42-0.09-0.84-0.09-0.95-0.47C263.26,99.27,264,99.55,263.89,99.83z M257.28,92.9c-0.42,0-0.63-0.19-0.63-0.47
			C256.86,92.24,257.49,92.71,257.28,92.9z M256.65,101.33c-0.21,0.47-0.94,0.19-0.94-0.19
			C256.02,100.96,256.34,101.33,256.65,101.33z M255.6,86.62c-0.21,0.38-0.84,0.09-0.94-0.19C255.08,86.15,255.29,86.62,255.6,86.62
			z M254.03,85.96c-0.31,0.38-1.26,0.09-1.26-0.28C253.08,85.59,253.61,85.87,254.03,85.96z M253.82,86.62
			c-0.1,0.56-1.26,0.19-0.94-0.28C253.19,86.52,253.4,86.71,253.82,86.62z M252.35,88.4c-0.21,0.09-0.94,0-0.94-0.47
			C251.82,87.84,252.35,88.12,252.35,88.4z M252.35,96.55c-0.31,0-0.63-0.09-0.73-0.38c-0.1-0.19,0-0.19,0-0.28
			C252.03,95.9,252.45,96.27,252.35,96.55z M251.61,100.21c-0.1,0.28-0.73,0.19-0.73-0.09C251.09,99.93,251.4,100.11,251.61,100.21z
			 M250.46,88.77c0,0.38-0.63,0.28-0.74,0.09c-0.1-0.19,0.11-0.09,0.11-0.28C250.14,88.59,250.35,88.68,250.46,88.77z M249.83,93.83
			c-0.32,0-0.53-0.09-0.63-0.38C249.51,93.27,250.14,93.55,249.83,93.83z M250.25,83.99c-0.11,0.09-0.53,0-0.53-0.28
			C249.93,83.62,250.35,83.71,250.25,83.99z M249.72,88.68c-0.31,0.19-0.73-0.19-0.52-0.47C249.51,88.21,249.83,88.3,249.72,88.68z
			 M249.51,83.62c-0.31,0.38-0.73-0.09-1.05-0.19C248.67,83.06,249.2,83.53,249.51,83.62z M247.83,91.68c0-0.19-0.21-0.28,0-0.47
			c0.1,0.09,0.21,0.09,0.42,0.19c0,0.19,0,0.56-0.11,0.66c-0.31,0-0.52-0.09-0.63-0.38H247.83z M246.99,88.87
			c0.31,0.09,0.52,0.28,0.63,0.56C247.2,89.71,246.78,89.24,246.99,88.87z M247.83,97.68c0.1,0.09,0.42,0,0.52,0.09
			c0.11,0.28-0.1,0.19-0.1,0.38c-0.11-0.19-0.42-0.09-0.53-0.19C247.62,97.77,247.73,97.77,247.83,97.68z M247.52,40.51
			c0.21-0.38,0.95,0,1.16,0.09C248.46,40.98,247.73,40.6,247.52,40.51z M249.2,44.44c-0.21,0.09-0.42-0.19-0.52-0.38
			C248.88,43.88,249.2,44.16,249.2,44.44z M248.36,39.66l0.52,0.19c0,0.19-0.21,0.19-0.52,0.28
			C248.25,40.04,248.25,39.76,248.36,39.66z M248.04,39.95c-0.32,0.19-0.84,0-0.84-0.28C247.41,39.57,248.04,39.66,248.04,39.95z
			 M247.52,82.78c-0.21,0.38-0.84,0.09-0.94,0C246.78,82.4,247.2,82.78,247.52,82.78z M245.94,56.25c0.1,0.19,0.42,0.19,0.73,0.28
			c0.11,0.19,0,0.19-0.1,0.38C246.15,56.91,245.73,56.53,245.94,56.25z M245.1,74.81c0.32,0,0.42,0.19,0.52,0.38
			c-0.21,0.09-0.31-0.09-0.52,0.09C245,75.18,245,74.9,245.1,74.81z M243.43,77.34c0.11-0.09,0.42-0.09,0.53,0
			c-0.21,0.09-0.32,0.37,0,0.47c0,0.19-0.42,0.19-0.53,0.09C243.53,77.71,243.43,77.53,243.43,77.34z M242.59,71.25
			c0.53,0.09,0.21,0.47,0.63,0.56c-0.1,0.28-0.31,0.38-0.63,0.38c-0.21-0.09-0.1-0.38-0.31-0.47
			C242.38,71.53,242.59,71.44,242.59,71.25z M243.22,84.46c-0.21,0-0.42-0.47-0.31-0.66h0.31
			C243.22,83.99,243.43,84.28,243.22,84.46z M239.83,49.54c0.17-0.03,0.42-0.01,0.55-0.13c0.21,0,0.21,0.47,0.11,0.56
			c-0.45,0.08-0.52-0.17-0.73-0.25C239.78,49.66,239.8,49.6,239.83,49.54z M240.8,51.29c-0.31,0.28-0.94,0.19-1.05-0.28
			C239.96,51,240.8,50.91,240.8,51.29z M239.57,50.23c0.07,0.12,0.08,0.27-0.03,0.4c-0.04-0.01-0.07-0.03-0.1-0.04
			C239.48,50.47,239.53,50.34,239.57,50.23z M219.08,93.37c-0.32,0.38-0.95,0-1.26-0.19C218.13,92.9,218.76,93.27,219.08,93.37z
			 M217.4,100.58c0.02-0.02,0.07-0.03,0.12-0.04c-0.02,0.07-0.04,0.14-0.07,0.21C217.4,100.72,217.36,100.67,217.4,100.58z
			 M250.35,108.83c0.11-0.19,0.53-0.38,0.74-0.09C251.09,108.92,250.56,109.02,250.35,108.83z M249.93,108.08
			c0.11,0.19,0.53,0.09,0.53,0.38C250.25,108.64,249.62,108.45,249.93,108.08z M251.61,108.83c0.21,0.09,0.94,0.09,1.15,0.19
			C252.56,109.3,251.61,109.2,251.61,108.83z M252.35,106.67c0.21,0,0.32,0.09,0.32,0.28c-0.11,0-0.11,0.19-0.32,0.19
			C252.14,106.96,252.35,106.77,252.35,106.67z M254.55,107.14c0-0.19,0.63-0.09,0.52,0.19
			C254.87,107.52,254.66,107.24,254.55,107.14z M255.39,108.08c-0.11,0.09-0.32,0-0.42-0.09
			C254.97,107.61,255.5,107.7,255.39,108.08z M255.66,112.24c-0.06-0.08-0.12-0.15-0.19-0.21c0.1-0.01,0.07-0.18,0.24-0.1
			C255.86,111.99,255.74,112.11,255.66,112.24z M258.65,103.02c-0.32,0-0.53-0.09-0.84-0.09c-0.42,0.84-1.05,1.59-1.58,2.16
			c-0.21,0-0.21,0.09-0.52,0.09c-0.31,0.19-0.21,0.38-0.42,0.47s-0.31-0.28-0.42,0c0.21,0,0.11,0.28-0.1,0.28
			c-0.21-0.09-0.32-0.09-0.53,0c-0.21,0.09,0.21,0.19-0.1,0.28c-0.32,0-0.32,0.09-0.63,0.09c-0.21,0.09,0.31,0.28,0,0.38
			c-0.63-0.09-1.16-0.09-1.68,0.09c0,0.09,0,0.38-0.21,0.47c-0.73,0.19-1.78,0.56-2.2,1.12c-0.53-0.09-1.26,0.19-1.89,0.47
			c0.21,0.09,0.21,0.28,0.11,0.37c-0.11-0.19-0.42-0.28-0.63,0c0.31,0.09,0.73,0.28,0.52,0.47c-0.52-0.28-1.47-0.09-1.47,0.38
			c-0.63-0.09-0.52,0.38-0.94,0.47c0.21,0.09,0.42,0.09,0.42,0.38h-0.94c0.21,0.28,0.1,0.38-0.21,0.19c-0.11,0.28,0.31,0.28,0,0.38
			c-0.32,0.09-0.11-0.19-0.32-0.19c-0.21,0.28-0.52,0.47-0.52,0.84c-0.63,0-0.95,0.47-1.16,0.84c-0.31-0.09-0.63,0.09-0.84,0
			c-0.11,0.19-0.21,0.66,0,0.75c0.63,0.19,0.63-0.47,1.15-0.19c-0.32,0.28-0.53,0.47-1.05,0.56c-0.21-0.19-0.42-0.28-0.73-0.38
			c-0.11,0.38,0.31,0.66,0.42,1.03c3.23,0.87,6.44,1.75,9.65,2.64c-14.5,28.9-41.82,80.35-47.88,80c-2.07-0.12-2.01-4.37-1.79-8.28
			c1-17.16,11.44-57,23.06-94.06c0.1-0.11,0.17-0.25,0.17-0.44c-0.01,0-0.02-0.01-0.02-0.01c0.05-0.17,0.11-0.35,0.16-0.52
			c0.46-0.06,0.92-0.13,1.33-0.31c-0.38-0.07-0.77-0.13-1.19-0.13c0.05-0.14,0.09-0.29,0.14-0.43c0.49,0.04,1.02,0.13,1.47,0.19
			c0.11-0.47,0.42-0.75,0.21-1.12c1.37,0,1.58-1.03,2-1.87c-0.21-0.09,0,0.28-0.32,0.28c-0.1-0.09-0.31-0.19-0.31-0.38
			c0.21-0.28,0.42,0.19,0.42-0.09c-0.21-0.38-0.84-0.28-1.05-0.28l-1.33-0.15c4.41-13.83,8.93-27.08,13.13-38.42l3,0.99v37.96
			c0,0,0.11,0,0.21-0.38c0-0.19,0.42-1.31,0.42-1.41c0-0.28-0.31-0.38-0.21-0.66c0.11-0.94,2-1.41,1.58-2.72
			c0.42-0.19,0.63-0.75,0.63-1.12c0.73-0.19,0.52-1.22,1.36-1.22c0-0.19,0-0.47,0.21-0.47c0.1,0.09,0.31,0.09,0.31,0.28
			c-0.84,0.84-1.89,1.87-1.57,3.56c-0.73,0.09-0.52,1.41-1.57,1.41c0,0.28,0.42,0.28,0.52,0.56c-0.21,0.28-0.52,0.47-0.52,1.03
			c-0.11,0.09-0.21,0-0.42,0.09c0,0.37,0.1,0.66,0.31,0.94c-1.15,0.75-1.26,2.34-2.41,3.19c0,0.19,0.42,0.19,0.21,0.38h-0.31
			c-0.11,0.19,0.21,0.09,0.1,0.37c-0.21,0.09-0.63,0.19-0.73,0.38c0.1,0.19,0.73,0.38,0.31,0.75c-0.21-0.09-0.1-0.38-0.52-0.28
			c-0.32,0.38-0.53,0.84-0.74,1.31c0.42,0.19,0.32,0.56,0.11,0.84l17.21,6.28c0.32-0.47,0.84-0.84,1.37-0.84
			c-0.11-0.09-0.11-0.19,0-0.28c0.31,0,0.42,0.09,0.52,0.19C258.23,102.74,258.86,102.83,258.65,103.02z M245.84,112.11
			c-0.42,0-0.52-0.56-0.42-0.84C245.63,111.45,246.15,111.83,245.84,112.11z M244.79,113.7c0.31,0,0.42,0.28,0.52,0.38
			c0,0.28-0.42,0.09-0.52,0C244.89,113.89,244.69,113.8,244.79,113.7z M244.58,113.52c-0.11,0.09-0.32,0.09-0.53,0.09
			c-0.31-0.09,0-0.37-0.31-0.47C243.95,112.77,244.48,113.23,244.58,113.52z M227.37,90.27c0.21-0.09,0.63,0,0.63,0.28
			C227.79,90.65,227.37,90.55,227.37,90.27z M245.31,96.36c0-0.47,0.84-0.47,0.73,0.09C245.94,96.55,245.52,96.46,245.31,96.36z
			 M245.94,97.3c-0.32,0.38-0.84,0-0.84-0.19C245.21,96.83,245.63,97.3,245.94,97.3z M259.38,98.61c0.21-0.19,0.63,0,0.63,0.28
			C259.8,99.08,259.17,98.8,259.38,98.61z M259.69,103.11c0.21-0.19,0.63,0,0.53,0.28C260.01,103.58,259.69,103.39,259.69,103.11z
			 M262.11,105.36c0.1-0.28,0.63,0,0.84,0.09C262.84,105.83,262.21,105.55,262.11,105.36z M262.53,107.05
			c0.11-0.38,0.63-0.09,0.95,0C263.26,107.33,262.74,107.14,262.53,107.05z M264.31,105.17c0.1-0.38,0.84-0.09,1.05,0
			C265.15,105.64,264.63,105.27,264.31,105.17z M265.05,106.3c0-0.28,0.42-0.09,0.52,0C265.47,106.58,265.15,106.39,265.05,106.3z
			 M266.94,116.14c0.1-0.09,0.1-0.28,0.42-0.28c0,0.19,0.31,0.38,0.1,0.47C267.25,116.33,267.15,116.14,266.94,116.14z
			 M267.36,116.7c0.21,0,0.42-0.09,0.63,0C267.99,117.08,267.36,117.08,267.36,116.7z M270.72,106.3c-0.52,0-1.15-0.75-1.15-0.38
			l-9.24-2.44c1.05-0.56,1.26-1.31,2.31-1.78c-0.11-0.28-0.32-0.56-0.11-0.84c0.32,0,0.11,0.38,0.42,0.38
			c0.95-2.06,3.78-2.44,5.14-4.12c0.74-0.19,1.05,0.09,1.05,0.09l0.21,8.25c0.42,0.09-0.11-0.47,0.31-0.47
			c0.21,0.09,0.32,0.28,0.11,0.47c0.31,0,0.42,0.19,0.84,0.09C270.51,105.74,270.82,106.11,270.72,106.3z M273.24,91.59
			c0.1,0.09,0.21,0.38,0.1,0.56c-0.31-0.28-0.84-0.28-0.94-0.66c-0.31,0.09-0.42,0.38-0.84,0.38c-0.1-0.09,0-0.09,0-0.19
			c-0.1,0-0.31,0-0.31,0.09c-0.53-0.09-0.74-0.84-0.42-1.22c0.21,0.19,0.31,0.09,0.42,0.19c0,0.19,0.1,0.19,0.1,0.37
			c0.74-0.09,1.26,0,1.57,0.56c0.21-0.38,0-0.84,0.42-1.03c0.32,0.09,0.21,0.56,0.32,0.84C273.55,91.49,273.55,91.68,273.24,91.59z
			 M273.76,102.55c-0.1-0.09-0.1-0.38,0-0.47c0.21,0,0.42,0.09,0.53,0.19C274.18,102.36,274.08,102.64,273.76,102.55z M274.29,94.3
			c-0.21-0.09-0.21-0.47,0-0.56c0.21,0,0.31,0.19,0.31,0.37C274.5,94.21,274.5,94.3,274.29,94.3z M274.5,93.37
			c-0.42-0.09-0.63-0.28-0.53-0.75c0.21-0.09,0.21-0.09,0.32-0.28c0.21,0,0.31,0.19,0.52,0.28c-0.1,0.09,0,0.38,0.21,0.38
			C274.71,93.27,274.5,92.99,274.5,93.37z M275.34,63.75c0-0.28-0.11-0.66,0-0.84c0.42,0,0.21,0.47,0.52,0.56
			C275.86,63.66,275.65,63.75,275.34,63.75z M277.01,41.91c0-0.19-0.31-0.09-0.31-0.19c-0.11,0,0,0.28-0.11,0.38
			c-0.31,0-0.31-0.28-0.52-0.28c0-0.19,0.42-0.28,0.63-0.19c0-0.28,0.42-0.66,0.73-0.28C277.33,41.54,277.22,41.82,277.01,41.91
			c0.21,0.19,0.53,0.19,0.74,0.28c-0.11,0.28-0.63,0-0.74,0.28C276.8,42.48,276.8,41.91,277.01,41.91z M277.96,108.17
			c-0.32,0-0.42-0.09-0.42-0.28C277.75,107.61,278.17,107.89,277.96,108.17z M279.22,42.2c-0.21-0.28-0.63-0.47-0.63-0.84
			C278.9,41.16,279.53,41.73,279.22,42.2z M279.95,93.18c-0.11,0.09-0.53,0.09-0.63,0C279.32,92.9,280.16,92.52,279.95,93.18z
			 M281.84,74.25c-0.53,0.19-0.32-0.75-0.84-0.84C281.42,72.75,281.95,73.68,281.84,74.25z M285.83,41.45
			c0.63,0.09,0.42,0.75,0,0.37C285.94,41.63,285.73,41.63,285.83,41.45z M285.83,50.72c0.21,0.19,0.21,0.38,0.52,0.38
			c0.11,0.38-0.1,0.56-0.21,0.75c-0.31-0.09-0.21-0.56-0.52-0.66C285.62,51,285.73,50.91,285.83,50.72z M285.83,53.91
			c-0.31,0-0.31-0.19-0.52-0.28c0-0.09,0.1-0.28,0.21-0.37C285.73,53.35,286.04,53.63,285.83,53.91z M282.58,51.94
			c0-0.09,0.21-0.09,0.21-0.19c0.1,0.19,0.31,0.28,0.31,0.47C282.89,52.32,282.58,52.32,282.58,51.94z M283.31,54.28
			c0.21,0.19,0.42,0.28,0.53,0.56C283.52,54.94,283.1,54.47,283.31,54.28z M283.73,57c0-0.19,0.11-0.19,0.32-0.19
			c0.1,0.09,0.1,0.56,0,0.66C283.73,57.57,283.94,57.1,283.73,57z M284.47,83.71c-0.42,0.09-0.53-0.56-0.32-0.84
			C284.57,82.87,284.68,83.43,284.47,83.71z M284.47,40.6c-0.21-0.19-0.53-0.56-0.32-0.84c0.21,0.19,0.21,0.19,0.63,0.09
			C284.99,40.13,284.47,40.32,284.47,40.6z M284.68,48.57h0.21c0.1,0.28,0.21,0.56,0.42,0.66C284.99,49.6,284.36,48.94,284.68,48.57
			z M285.31,56.07c0.31,0,0.52,0.09,0.52,0.28c0,0.09-0.31,0-0.31,0.19C285.31,56.44,285.2,56.16,285.31,56.07z M285.52,57.28
			c0.31,0.09,0.52,0.28,0.63,0.66c-0.31,0.09-0.31-0.09-0.42,0.28C285.2,58.13,285.41,57.57,285.52,57.28z M285.62,99.55
			c0-0.19,0.42-0.09,0.52-0.19c0.11-0.28-0.1-0.19,0-0.38c0.21,0,0.32,0.09,0.32,0.19C286.57,99.65,285.94,99.74,285.62,99.55z
			 M95.85,38.07c-0.42-0.09-0.31,0.28-0.42,0.47l0.84,0.28C96.06,38.54,95.74,38.35,95.85,38.07z M189.37,95.8
			c0-0.09,0.21-0.09,0.32-0.09c0.1-0.19-0.21-0.19-0.32-0.28C189.37,95.52,189.16,95.8,189.37,95.8z M125.45,100.86
			c0.52,0.28,1.05,0.28,1.57,0.38l29.39,3l0.42-0.47c-0.32-0.09-0.84-0.38-0.63-0.75c0.31,0.09,0.42,0.28,0.84,0.28
			c0.1-0.19-0.63-0.38-0.32-0.56c1.05-0.28,1.05-1.31,2.21-1.59c-0.11-0.19-0.11-0.38,0-0.47c0.31,0.09,0.31-0.09,0.52-0.09
			c0.1-0.28-0.42,0-0.42-0.19c0.11-0.09,0.11-0.19,0.31-0.28c0.21,0,0.21,0.38,0.42,0.28c0.11-0.38-0.31-0.28-0.21-0.56
			c0.11-0.09,0.21-0.19,0.42-0.19c0.11,0.09-0.1,0.28,0,0.37c0.74-0.28,1.05-0.94,1.58-1.31c0.1-0.19-0.32-0.19-0.11-0.37
			c0.63-0.19,1.05-0.56,1.47-0.84c-0.11-0.09,0-0.19,0-0.28c0.1-0.09,0.21,0,0.42-0.09c0.31-1.12,0.94-1.97,1.47-2.91
			c-0.21,0-0.32-0.09-0.32-0.19l0.42-0.19c0-0.47,0.42-0.75,0.21-1.31c-0.31,0-0.63,0-0.63-0.28c0.21-0.09,0.63,0,0.84-0.09
			c0.11-0.19-0.21-0.28,0-0.47c0.42,0.09,0.32-0.28,0.73-0.38c-0.1,0-0.21,0-0.21-0.09c0.1-0.09,0.1-0.09,0.31-0.09
			c0-0.28-0.21-0.19-0.21-0.37c0.42-0.09,0.52-0.38,0.63-0.66c-0.32-0.19-0.94,0.09-1.15-0.38c0.52,0,0.94-0.09,1.47-0.19
			c-0.52-0.19-1.05-0.19-1.78-0.28l-25.93-2.81c0,0.09-0.1,0.19-0.1,0.19c-0.42-0.19-1.05-0.19-1.47-0.28
			c0.21-0.28,1.05-0.38,1.57-0.19v0.28c0.11-0.19,0.21-0.28,0.32-0.28c0.42,0.19,0.73,0,1.05-0.09c0-0.28-0.21-0.28-0.21-0.66
			c0.31-0.09,0.63-0.19,0.94-0.19c-0.1-0.56,0.21-0.75,0.63-0.47c0.11-0.56,0.73-0.09,1.05-0.75c-1.36-3.28-3.36-6-5.98-8.25
			c0,0.09-0.42-0.19-0.42-0.47c0-0.09,0.11-0.09,0.21-0.19c-0.63,0.09-1.05-0.56-0.73-0.84c0.31,0.28,0.84,0.37,0.94,0.75
			c0.11,0.19-0.21,0-0.21,0.28c0.21,0,0.21,0.19,0.32,0.28c0.1-0.19-0.11-0.56,0.21-0.66c0.1,0.28,0.42,0.38,0.31,0.84
			c3.04,1.69,4.41,4.87,6.09,7.78c0.42-0.37,0.95-0.75,1.26-1.22c0.63,0.19,1.15-0.28,1.36-0.94c0.21,0,0.11,0.28,0.42,0.19
			c-0.1-0.19,0-0.47,0.21-0.47c0.53,0,0.95-0.09,1.37-0.28l-1.16-27.18c0.11,0.19,0.32,0.38,0.32,0.75c2.2,0.84,5.88,2.06,6.3,1.78
			c0.31-0.19-0.21-0.28,0-0.47c0.21-0.09,0.31,0.19,0.31,0c-0.21,0-0.21-0.28-0.1-0.38c0.21,0.09,0.31,0.09,0.52,0.09
			c0.32-0.56,0.63-0.38,0.95-0.84c-0.21,0.09-0.84,0.09-0.84-0.19c0.31-0.38,0.63,0,1.05,0c0.31-0.28-0.32-0.38,0-0.56
			c0.1,0,0.31,0.09,0.52,0.09c0.63-0.38,0.94-1.12,1.57-1.22c0.11-0.38-0.31-0.38-0.1-0.56c0.21,0,0.52,0,0.63-0.09
			c-0.11-0.28-0.42-0.28-0.42-0.66c0.63,0,0.63-0.56,1.26-0.38c0.1-0.28-0.42-0.38-0.21-0.56c0.42,0,0.42,0.47,0.73,0.28
			c0.21-0.19,0.1-0.37-0.11-0.47c0.42-0.09,0.21-0.38,0.42-0.56c0.11,0.09,0.42,0,0.53,0.09l1.15-1.12c-0.21,0-0.31-0.19-0.21-0.28
			c0.21,0.09,0.63,0.09,0.95,0.09c0-0.28-0.11-0.38-0.11-0.66c0.52-0.28,1.05-0.47,0.94-1.22c0.42-0.19,0.84-0.09,1.15-0.38
			c0-0.19-0.42-0.19-0.42-0.37c0.21-0.09,0.42-0.19,0.73-0.19c0-0.47,0.32-0.56,0.74-0.56c0.1-0.47,0.52-0.75,0.73-1.12l-17.53-6
			c0,0.19-0.21,0.28-0.31,0.28c0,0.28,0.31,0.28,0.31,0.47c-0.52,0.09-0.73,0.47-1.47,0.19c0,0.28,0.32,0.19,0.32,0.38
			c-0.32,0.09-0.63,0.47-0.84,0.19c-0.21,0.28-0.42,0.47-0.53,0.75c0.21,0.19,0.74,0.28,0.84,0.56c-0.21,0,0,0.47-0.21,0.56
			c-0.21-0.19-0.21-0.47-0.52-0.47c-1.47,0-2.83,0.47-3.57,1.03c0.21,0.19,0.42,0.28,0.53,0.47c-0.42,0.19-0.53,0.09-1.15,0.19
			c0,0.19,0.31,0.28,0,0.37c-0.11,0-0.11-0.09-0.32-0.09c-0.1-0.09-0.1-0.28-0.1-0.47c-0.32-0.09,0,0.47-0.32,0.38
			c0-0.09-0.1-0.19-0.1-0.47c-1.58,0.38-3.04,0.75-4.2,1.5c-0.73,0-1.57,0.19-1.89,0.66c-0.32-0.19-0.74-0.09-0.95,0.09
			c0.21,0,0.42,0.19,0.21,0.28c-0.21,0.19-0.73-0.09-0.42-0.37c-0.31,0.09-0.21,0.47-0.42,0.47c-0.21-0.28-0.94-0.19-1.05,0
			c-0.1,0-0.1-0.19-0.21-0.19c-0.32,0.56-1.16,0.19-1.89,0.19c0,0.28,0.1,0.75-0.11,0.84c-0.31-0.28-0.52-0.19-0.94-0.09l1.68,39.55
			c0.1,1.41,0,3.28,0.52,3.84c0,0.19,0.11-0.09,0.32,0c0.21-0.09-0.11-0.28,0.1-0.47h0.52c0-0.28,0-0.75,0.53-0.66
			c-0.32-0.47,0.31-0.66,0.21-1.12c0.31-0.09,0.42-0.28,0.84-0.28c0.1-0.28,0.1-0.56,0.31-0.75c0.32,0.19,0.84,0,0.95,0.28
			c-1.37,0.84-1.89,2.25-3.15,3.28v0.66c-0.1,0.09-0.31,0-0.52,0c0.1,0.56-0.53,0.47-0.32,1.12c-0.94,0.09-0.63,1.41-1.47,1.69
			c0,0.19,0.21,0.19,0.11,0.38c-0.21,0.09-0.21,0.38-0.74,0.66c0.21,0,0.32,0.19,0.21,0.37c0.32-0.09,0.42,0.09,0.42,0.38
			c-0.21,0.09-0.63-0.19-0.94,0c0,0.28,0.31,0.28,0.1,0.47c-0.94,0.19-1.26,0.94-1.99,1.31c0.11,0.38,0.53,0.84,0.53,1.12
			c-0.32-0.09-0.53,0-0.74,0.09c0,0.28,0.32,0.09,0.21,0.38c-0.63,0.09-1.05,0.38-0.94,0.94c-0.21,0-0.21-0.19-0.42-0.09
			c-0.1,0.66,0,0.84-0.31,1.31C125.55,100.39,125.76,100.58,125.45,100.86z M162.92,91.96c0.21,0.09,0.1,0.38,0.42,0.47
			c-0.32,0.28-1.05-0.09-1.36-0.28C162.08,91.87,162.82,92.34,162.92,91.96z M162.08,92.71c0.21,0,0.32,0.09,0.32,0.28
			c-0.11,0.09-0.32,0.09-0.42,0C161.87,92.8,162.08,92.8,162.08,92.71z M161.35,89.34c-0.21,0.19-0.63,0.09-0.63-0.19
			C160.82,89.05,161.35,89.15,161.35,89.34z M160.82,93.93c0.42,0,0.53,0.19,0.63,0.47c-0.1,0.09-0.63,0-0.73-0.09
			C160.72,94.12,160.72,94.02,160.82,93.93z M159.46,93.46c-0.11,0.09-0.52,0.09-0.63,0C158.83,93.18,159.46,92.99,159.46,93.46z
			 M158.51,92.71c0.31,0,0.52,0.09,0.63,0.38C158.83,93.27,158.2,92.99,158.51,92.71z M158.93,94.02c-0.11,0.09-0.53,0.09-0.63-0.09
			C158.3,93.65,158.93,93.65,158.93,94.02z M158.93,99.08c-0.11,0.38-1.05,0.47-1.26,0.09C157.88,98.99,158.62,98.9,158.93,99.08z
			 M156.83,93.27c0.31-0.19,0.73,0,0.73,0.28C157.25,93.65,156.73,93.65,156.83,93.27z M136.78,101.52c-0.1-0.28,0.53,0,0.53-0.28
			l0.52,0.37C137.73,101.71,136.89,101.71,136.78,101.52z M141.82,93.93c-0.53,0.38-0.74-0.19-1.05-0.28c0.1-0.28,0.84,0,0.84-0.47
			l0.21,0.19c0,0.19-0.11,0.28-0.21,0.28C141.61,93.74,141.82,93.74,141.82,93.93z M140.67,89.9c0-0.28,0.32-0.47,0.53-0.28
			C141.09,89.8,140.88,89.99,140.67,89.9z M146.13,99.65c0.11-0.09,0.53-0.09,0.63,0C146.76,100.02,146.13,100.02,146.13,99.65z
			 M151.9,92.15c-0.31-0.38,0.11-0.75,0.53-0.47C152.32,91.87,152.21,92.05,151.9,92.15z M156.1,104.05
			c-0.21,0.09-0.63-0.09-0.94-0.19C155.36,103.58,156.1,103.68,156.1,104.05z M154.31,89.99c-0.1,0.09-0.52,0-0.63-0.09
			C153.79,89.62,154.42,89.62,154.31,89.99z M153.68,88.77v0.09c-0.1,0.09-0.52,0.09-0.63,0C152.95,88.59,153.58,88.68,153.68,88.77
			z M152.84,90.46c0,0.38-0.73,0.28-0.94,0.19C151.9,90.37,152.63,90.37,152.84,90.46z M152.42,89.8c-0.32,0-0.53,0.19-0.84,0.19
			c-0.11-0.09-0.11-0.19,0-0.28c-0.32,0-0.53-0.09-0.74-0.19C151.17,89.15,152.21,89.34,152.42,89.8z M149.7,93.83
			c0.1,0.28-0.21,0.19-0.21,0.37c-0.31-0.09-0.42-0.19-0.73-0.37C148.86,93.65,149.49,93.83,149.7,93.83z M147.6,101.61
			c0,0.19-0.21,0.19-0.31,0.38c-0.32,0-0.53-0.09-0.63-0.19c0-0.19,0.31-0.28,0.52-0.37c-0.1-0.09-0.42-0.19-0.42-0.38
			c0.32-0.19,0.53,0.09,0.84,0.19c-0.1,0.09-0.21,0.19-0.31,0.19L147.6,101.61z M147.39,98.24c-0.1,0.37-0.73,0.09-0.94,0
			C146.65,97.86,147.18,98.15,147.39,98.24z M146.44,87.84c-0.11,0.19-0.42,0.28-0.63,0.09C145.81,87.46,146.23,87.65,146.44,87.84z
			 M146.34,94.96c0,0.19-0.52,0.38-0.52,0C145.92,94.87,146.23,94.87,146.34,94.96z M144.66,97.4c0,0.09-0.11,0.19-0.11,0.28
			c-0.31-0.09-0.52,0-0.73-0.09C144.03,97.4,144.45,97.11,144.66,97.4z M143.82,87.46c0,0.28-0.63,0.28-0.74,0.09
			C143.19,87.27,143.71,87.27,143.82,87.46z M143.08,94.12c0.32,0,0.42,0.09,0.42,0.38c-0.1,0.09-0.21,0.09-0.42,0.09
			C142.98,94.49,142.98,94.21,143.08,94.12z M142.98,102.18c-0.32,0.19-0.73-0.09-1.05-0.09
			C142.03,101.71,142.98,101.8,142.98,102.18z M141.93,87.93c0,0.28-0.42,0.38-0.63,0.19C141.3,87.93,141.72,87.84,141.93,87.93z
			 M141.3,87.37c-0.1,0.09-0.52,0-0.52-0.19C140.88,86.9,141.51,87.09,141.3,87.37z M140.77,87.56c0.31,0,0.42,0.37,0.31,0.56
			C140.77,88.12,140.67,87.74,140.77,87.56z M140.77,88.77c0.21,0.38,0.73,0.38,1.15,0.66c0.11,0,0-0.28,0.21-0.19
			s0.11,0.37,0.11,0.56c-0.21,0-0.21-0.19-0.32-0.28c-0.52,0-1.05-0.19-1.57-0.19C140.46,89.05,140.77,89.05,140.77,88.77z
			 M139.41,95.71c0.21,0.09,0.53,0.28,0.32,0.56C139.41,96.27,139.2,95.9,139.41,95.71z M139.62,100.21c-0.1,0.28-0.52,0.09-0.73,0
			C138.99,99.83,139.51,99.93,139.62,100.21z M138.67,101.14c0.21,0,0.11,0.19,0.32,0.19c0,0.19-0.21,0.19-0.42,0.19
			c0.1,0.09,0.31,0.09,0.31,0.28c-0.21,0.09-0.21,0.19-0.42,0.19c0-0.38-0.52-0.19-0.52-0.56c0.1-0.09,0.31,0,0.42,0.09
			L138.67,101.14z M137.83,100.11c0.11,0.19,0.21,0.19,0.21,0.38c-0.31,0.19-0.63,0-0.63-0.28
			C137.52,100.11,137.73,100.11,137.83,100.11z M136.99,85.21c0.11,0.09,0.32,0.19,0.32,0.38C136.99,85.77,136.68,85.4,136.99,85.21
			z M137.73,100.86c-0.21,0.28-1.05,0.19-1.16-0.19C137.1,100.39,137.41,100.39,137.73,100.86z M165.65,44.54
			c-0.32,0.09-0.84-0.09-0.95-0.28C164.81,43.98,165.54,44.26,165.65,44.54z M160.3,45.57c0.21-0.19,0.42,0.09,0.63,0.09
			C160.82,45.94,160.3,45.85,160.3,45.57z M161.56,46.13c-0.21,0.09-0.42-0.09-0.53-0.28C161.14,45.76,161.66,45.76,161.56,46.13z
			 M162.08,44.35c-0.21,0.19-0.63,0-0.63-0.28C161.66,43.98,162.08,44.07,162.08,44.35z M161.56,44.91c0,0.28-0.21,0.38-0.53,0.38
			c-0.1-0.09-0.21-0.19-0.21-0.38C161.03,44.91,161.24,44.73,161.56,44.91z M160.82,43.04c-0.31,0-0.42-0.19-0.63-0.28
			C160.3,42.38,161.03,42.76,160.82,43.04z M160.19,43.13c0,0.19-0.21,0.19-0.31,0.38c-0.21-0.09-0.21-0.28-0.32-0.47
			C159.67,42.85,159.98,43.13,160.19,43.13z M160.09,48.57c-0.21,0.19-0.42,0-0.53-0.09C159.67,48.19,160.19,48.38,160.09,48.57z
			 M159.46,49.88c0,0.19-0.42,0.19-0.52,0.09c0-0.19,0.1-0.19,0.1-0.28L159.46,49.88z M158.93,42.1c-0.11,0.09-0.42,0-0.63-0.09
			C158.41,41.82,159.04,41.73,158.93,42.1z M157.15,42.2c0.11,0.09,0.21,0.09,0.21,0.28c-0.21,0-0.42,0-0.42,0.38
			c0.21-0.19,0.53,0,0.63,0.28c-0.21,0.09-0.63,0-0.63-0.28c-0.21,0.19-0.42-0.09-0.52-0.28C156.73,42.38,156.94,42.48,157.15,42.2z
			 M157.15,50.44c-0.31,0.19-0.63,0-0.73-0.19C156.52,49.97,157.15,50.16,157.15,50.44z M154.52,43.04
			c-0.31,0.09-0.42-0.09-0.52-0.28C154.1,42.38,154.73,42.94,154.52,43.04z M153.47,41.54l-1.78-0.66
			C152.32,40.51,153.47,41.16,153.47,41.54z M151.37,53.63c-0.21,0.38-0.63,0.09-0.95,0C150.54,53.25,151.06,53.53,151.37,53.63z
			 M150.22,38.82c-0.21,0.28-0.73,0-0.84-0.09C149.59,38.35,150.01,38.73,150.22,38.82z M150.01,46.69
			c-0.21,0.09-0.63-0.09-0.63-0.28C149.49,46.32,149.91,46.41,150.01,46.69z M148.96,45.76c0.31,0,0.52,0.28,0.31,0.56
			C148.86,46.41,148.86,45.94,148.96,45.76z M146.34,71.25c0.11-0.47,0.63-0.38,0.84-0.09C147.07,71.44,146.55,71.34,146.34,71.25z
			 M146.55,78c0.11-0.09,0.42,0.09,0.42-0.28c0.32,0,0.32,0.28,0.32,0.47C147.07,78.28,146.44,78.37,146.55,78z M147.49,50.72
			c-0.11,0.19,0.1,0.19,0.1,0.38c-0.21,0.09-0.21,0-0.31-0.09c-0.11,0.75,0.42,1.41,0,1.87c-0.53-0.38-0.11-1.78-0.42-2.34
			c0.1-0.19,0.42-0.19,0.42-0.47c0.42,0,0.21,0.38,0.52,0.47C147.81,50.63,147.7,50.72,147.49,50.72z M148.33,40.51
			c0.1,0.09,0.31,0.09,0.31,0.38C148.33,41.07,147.91,40.7,148.33,40.51z M146.76,41.91c0.32,0.75,0,1.78,0.95,2.06
			c-0.21,0.47-0.53-0.19-0.74-0.09s0,1.12,0.53,1.31c-0.11,0.19-0.21,0.09-0.42,0c0.42,0.38,0.1,0.84,0.21,1.41
			c0.1,0.19,0.42,0.28,0.52,0.56c-0.21,0.19-0.21-0.09-0.52,0c0.1,0.94-0.32,1.97,0.31,2.44c-0.1,0.19-0.21,0.19-0.31,0.09
			c0,0.19,0,0.38-0.11,0.47C146.76,47.54,146.55,44.07,146.76,41.91z M145.71,62.81c0.21-0.09,0.52,0.28,0.63-0.19
			c0.32,0,0.21,0.19,0.21,0.38l-0.42,0.28c0.11,0.19,0.11-0.09,0.32,0c0.1,0.09,0.21,0.09,0.21,0.28c0.31,0,0.21-0.28,0.52-0.28
			c0.21,0.28-0.21,0.38-0.21,0.66c-0.42-0.09-0.52,0.09-0.84-0.19c-0.21,0.09,0.11,0.47-0.1,0.47
			C145.5,64.13,145.71,63.28,145.71,62.81z M145.5,71.34c-0.32-0.09-0.32,0-0.53-0.09c-0.1,0,0,0.19-0.1,0.19
			c-0.32,0-0.32-0.09-0.42-0.19c-0.11,0-0.11,0.19-0.32,0.19c0-0.28-0.21-0.38-0.52-0.19c0-0.09-0.11-0.19-0.21-0.28
			c0.1-0.47,1.36-0.19,1.47,0.19c0.1,0,0-0.28,0.1-0.28c0.32,0,0.42,0.09,0.63,0.09C145.6,71.15,145.6,71.25,145.5,71.34z
			 M143.92,69.56c0.32-0.28,0.74-0.09,0.95,0.19c-0.11,0.09-0.21,0.28-0.42,0.28C144.13,69.94,144.13,69.65,143.92,69.56z
			 M145.29,64.5c-0.42,0.28-0.53-0.75-1.05-0.75c0-0.19,0.21-0.28,0.31-0.38C145.18,63.47,145.08,64.13,145.29,64.5z M144.24,63.47
			c-0.21-0.19,0-0.66-0.42-0.66c0.1-0.09,0-0.37,0.21-0.37c-0.11-0.09-0.42,0-0.21-0.28c-0.11-0.19-0.21,0.19-0.32,0
			c0-0.28-0.21-0.56,0-0.84c0.32,0.09,0.32,0.56,0.74,0.66c0,0.19-0.11,0.28-0.21,0.38C144.34,62.53,144.87,63.28,144.24,63.47z
			 M144.34,61.97c-0.21-0.09-0.31-0.28-0.42-0.56C144.13,61.22,144.66,61.69,144.34,61.97z M143.29,59.72
			c0.32,0,0.53,0.38,0.32,0.66C143.29,60.28,143.08,60,143.29,59.72z M142.66,61.5c0.32,0,0.53,0.38,0.42,0.56
			C142.66,62.16,142.56,61.69,142.66,61.5z M141.61,65.16c0.31,0.09,0.52,0.75,0.1,0.75C141.61,65.72,141.51,65.44,141.61,65.16z
			 M141.3,71.25c0-0.19-0.21-0.47,0-0.56C141.61,70.69,141.82,71.15,141.3,71.25z M141.3,54.57c-0.1,0.19-0.31,0.28-0.52,0.28
			c-0.21-0.09-0.11-0.38,0-0.47C141.09,54.38,141.19,54.47,141.3,54.57z M140.56,43.98c0.31,0,0.31,0.47,0.1,0.47
			C140.35,44.54,140.46,44.07,140.56,43.98z M140.04,55.69c0.32,0,0.42,0.38,0.21,0.56C140.04,56.25,139.93,55.88,140.04,55.69z
			 M140.46,58.41c-0.21,0.28-0.73,0.09-0.73-0.28C140.04,57.85,140.14,58.31,140.46,58.41z M137.2,74.34
			c-0.52,0.09-0.73-0.38-0.42-0.56C137.1,73.78,137.41,74.06,137.2,74.34z M137.83,72.65c-0.21-0.09-0.31-0.38-0.21-0.47
			C137.94,72.09,137.94,72.56,137.83,72.65z M138.25,72c0.21,0,0.11,0.19,0.32,0.19l-0.11,0.38c-0.21,0-0.21-0.09-0.31-0.09
			C138.04,72.19,138.25,72.19,138.25,72z M137.62,70.97c0.32,0,0.32,0.28,0.42,0.47c-0.21,0.09-0.42-0.09-0.52-0.09
			C137.41,71.15,137.62,71.06,137.62,70.97z M136.99,70.78c0.21,0.19,0.53,0.56,0.42,0.84C136.99,71.62,136.68,71.15,136.99,70.78z
			 M136.47,70.87c0.21,0.09,0.52,0.47,0.21,0.75C136.26,71.62,136.15,71.06,136.47,70.87z M136.78,72.09
			c0.11,0.19,0.21,0.75-0.31,0.75c-0.11-0.19-0.11-0.38-0.21-0.47C136.57,72.37,136.47,72,136.78,72.09z M136.26,73.4
			c0.31,0,0.42,0.28,0.31,0.47C136.26,73.87,136.15,73.59,136.26,73.4z M131.22,100.39c0-0.19,0.84,0,1.05,0
			C132.27,100.77,131.33,100.58,131.22,100.39z M135.42,100.96c-0.1,0-0.31,0.09-0.52,0C134.9,100.68,135.53,100.58,135.42,100.96z
			 M136.26,80.81c0,0.19-0.21,0.09-0.21,0.28c-0.31-0.09-0.52-0.38-0.21-0.56C135.94,80.62,136.15,80.62,136.26,80.81z
			 M135.53,73.22c0.1-0.09,0.52-0.09,0.42,0.19C135.84,73.59,135.53,73.5,135.53,73.22z M135.84,72.93
			c-0.52-0.09-0.42-0.66-0.52-1.03c0.1-0.09,0.42,0,0.63,0.09C135.74,72.28,135.84,72.75,135.84,72.93z M135.94,71.62
			c-0.42-0.09-0.42-0.56-0.31-0.75C135.94,70.87,136.05,71.34,135.94,71.62z M134.27,48.47l-0.21,0.28c-0.21,0-0.32-0.09-0.32-0.38
			C133.85,48.29,134.16,48.38,134.27,48.47z M133.95,56.72c-0.21,0-0.31-0.09-0.31-0.19c0.1-0.09,0.21-0.19,0.42-0.19
			C134.16,56.44,133.95,56.63,133.95,56.72z M132.69,54.57c-0.1,0.47-0.94,0-0.63-0.38C132.38,54.28,132.38,54.57,132.69,54.57z
			 M131.22,62.34c-0.32,0.09-0.42-0.19-0.63-0.28c0.1-0.28,0.52-0.19,0.73,0C131.12,62.16,131.33,62.25,131.22,62.34z M131.64,48.1
			c-0.21,0.19-0.11,0.38-0.21,0.66c-0.32-0.09-0.21-0.56-0.42-0.75c-0.21,0-0.32,0.28-0.53,0.09
			C130.49,47.63,131.64,47.54,131.64,48.1z M131.22,46.79c0.21,0,0.31,0.28,0.1,0.47C131.12,47.35,131.12,46.88,131.22,46.79z
			 M131.96,53.91c-0.31,0.09-0.31,0.47-0.63,0.56c-0.21-0.19,0-0.28-0.1-0.47c-0.32,0.09-0.63-0.19-0.95-0.28
			c0-0.19-0.1-0.47,0-0.56c0.63,0,1.26,0.37,1.58,0C132.06,53.44,131.64,53.82,131.96,53.91z M130.59,54.38
			c-0.42,0.09-0.42-0.38-0.32-0.47C130.59,53.82,130.7,54.19,130.59,54.38z M131.12,50.54c-0.1,0.38-0.84,0-0.42-0.28L131.12,50.54z
			 M130.59,48.66c0.21,0,0.31,0.09,0.31,0.28c-0.1,0-0.1,0.09-0.1,0.09C130.59,48.94,130.38,48.85,130.59,48.66z M131.33,52.22
			c-0.21,0.19-0.42-0.09-0.52-0.19c0,0.19,0,0.38-0.11,0.47c-0.42-0.19-0.63-0.66-0.21-1.03C130.91,51.57,131.22,51.75,131.33,52.22
			z M131.12,50.44l-0.21-0.47c0.32-0.19,0.74-0.09,0.74,0.28C131.43,50.26,131.33,50.44,131.12,50.44z M130.59,49.32
			c0,0.19-0.11,0.38-0.32,0.38c-0.1-0.19-0.21-0.09-0.21-0.38C130.17,49.22,130.49,49.22,130.59,49.32z M131.12,55.88
			c-0.42,0.19-0.52-0.47-1.05-0.56C130.38,55.03,131.12,55.5,131.12,55.88z M131.22,58.97c-0.32-0.38-0.95-0.66-0.63-1.12
			C130.91,58.03,131.54,58.41,131.22,58.97z M131.22,59.81c0-0.19-0.21-0.09-0.11-0.28c0.11-0.09,0.32-0.19,0.53-0.09
			C131.64,59.72,131.54,59.81,131.22,59.81z M132.06,57.85c0.1,0.19-0.32,0.56-0.42,0.37C131.54,57.94,131.75,57.85,132.06,57.85z
			 M132.17,52.32c0.42,0.28,0.21,0.84,0,1.12c-0.31,0-0.31-0.56,0-0.56C132.06,52.79,131.96,52.5,132.17,52.32z M131.64,51.38
			c-0.21-0.09,0.1-0.28-0.21-0.38c0.1-0.19,0.52-0.19,0.63,0C131.96,51.19,131.85,51.29,131.64,51.38z M129.54,46.6
			c0-0.38,0.31-0.47,0.42-0.75c0.84,0.28,1.89-0.09,1.89,0.75c-0.32,0.09-0.32-0.19-0.42-0.28c-0.21,0-0.42,0.28-0.63,0.09
			c0.1,0.19,0,0.38-0.21,0.75c-0.32-0.09-0.42-0.38-0.42-0.66C129.96,46.51,129.75,46.79,129.54,46.6z M130.28,47.16
			c-0.1,0.19-0.1,0.37-0.31,0.37C129.75,47.35,130.07,46.97,130.28,47.16z M130.28,56.91c0.32,0,0.32,0.19,0.42,0.28
			c-0.31,0.28-0.21,0.47-0.42,0.75C129.86,57.85,130.07,57.19,130.28,56.91z M130.17,59.44h0.21C130.7,60,129.86,60,130.17,59.44z
			 M131.01,68.06c-0.42,0.09-0.21-0.38-0.53-0.38c0-0.19-0.1-0.47,0.11-0.56C130.8,67.31,131.12,67.78,131.01,68.06z M130.8,66.37
			c0.1-0.28,0.52-0.09,0.52,0.19C131.22,66.66,130.8,66.56,130.8,66.37z M131.22,64.59c-0.21-0.38-0.21-0.66,0.21-0.84
			c0.31,0.28-0.21,0.28,0.21,0.66C131.43,64.41,131.43,64.59,131.22,64.59z M131.12,63c-0.21,0.09,0.11,0.19,0,0.38
			c-0.1,0.09-0.42-0.09-0.42-0.38c0.42-0.09,0.53-0.38,0.95-0.47C131.85,62.81,131.54,63.09,131.12,63z M132.17,64.5
			c-0.1,0-0.1,0.19-0.31,0.19c0-0.28-0.32-0.75,0-0.94C132.38,63.94,132.06,64.13,132.17,64.5z M132.48,63.94
			c-0.21,0-0.31-0.09-0.42-0.19c0.31-0.19,0-0.28,0.1-0.66C132.59,63.19,132.69,63.56,132.48,63.94z M132.38,57.57
			c-0.1-0.19,0.21-0.19,0.21-0.28c0.1,0,0.1,0.09,0.21,0.09C132.8,57.66,132.48,57.75,132.38,57.57z M132.8,47.91
			c0.1,0,0.21-0.09,0.42-0.09c0.1,0.09,0.1,0.28,0,0.38C133.01,48.19,132.8,48.1,132.8,47.91z M133.32,56.63
			c-0.21-0.09-0.42-0.19-0.31-0.47c0.21-0.09,0.73-0.09,0.73,0.19C133.43,56.44,133.43,56.35,133.32,56.63z M134.27,85.21
			c-0.32,0-0.32-0.37-0.21-0.47C134.37,84.65,134.58,85.12,134.27,85.21z M134.58,57.1c-0.1,0.09-0.1,0.38,0,0.56
			c-0.52,0-0.52,0.37-0.63,0.75c-0.31-0.19-0.42-0.38-0.42-0.75c0.32,0,0.32-0.38,0.63-0.38c0.11-0.19-0.1-0.19-0.21-0.28
			c0.42-0.47,1.05,0,1.47-0.19c0.21,0.28,0,0.38,0.21,0.66c-0.1,0.09-0.42,0.09-0.63,0.09C134.9,57.38,134.79,57.19,134.58,57.1z
			 M135.42,62.81c-0.31,0-0.31-0.19-0.52-0.28C135,62.25,135.63,62.63,135.42,62.81z M135,70.78c0.21,0,0.21,0.09,0.42,0.19
			c-0.21,0.09,0,0.38-0.1,0.47C135,71.44,134.79,71.06,135,70.78z M136.26,99.36c-0.32,0.28-1.26,0.09-1.47-0.09
			C135,98.8,135.84,99.18,136.26,99.36z M135.32,99.93c-0.32,0.19-0.74-0.19-0.95,0.19c-0.1-0.19-0.31-0.28-0.31-0.56
			c-0.21,0.37-0.63,0.28-0.95,0.28l0.11-0.47c0.42,0,0.52,0.09,0.84,0.19C134.58,99.36,135,99.74,135.32,99.93z M134.27,96.55
			c0,0.09,0,0.28-0.11,0.37c-0.21-0.09-0.21-0.28-0.42-0.37C133.85,96.36,134.06,96.36,134.27,96.55z M134.16,98.99
			c0,0.28-0.42,0.28-0.63,0.09C133.53,98.9,134.06,98.9,134.16,98.99z M133.22,95.52c0,0.28-0.74,0.28-0.74,0
			C132.69,95.33,133.01,95.52,133.22,95.52z M133.01,96.74c-0.21,0.09-0.63,0-0.73-0.09C132.38,96.36,133.01,96.36,133.01,96.74z
			 M132.69,97.3c0,0.19-0.21,0.19-0.42,0.19c0,0-0.11-0.09-0.11-0.28C132.38,97.11,132.59,97.3,132.69,97.3z M132.38,97.96
			c0,0.38-0.73,0.28-0.73-0.09C131.85,97.68,132.27,97.77,132.38,97.96z M131.85,98.9c-0.11,0.19-0.42,0.09-0.53,0.28
			c-0.1-0.09-0.31-0.09-0.31-0.28C131.12,98.8,131.64,98.8,131.85,98.9z M130.49,94.02l0.32,0.38c-0.21,0.09-0.21,0.19-0.42,0.19
			C130.17,94.4,130.38,94.21,130.49,94.02z M130.8,97.58c0,0.19-0.53,0.28-0.84,0.19C129.96,97.4,130.7,97.4,130.8,97.58z
			 M129.33,97.96l0.94,0.28l-0.21,0.37c-0.42,0-0.31-0.28-0.84-0.19C129.23,98.24,129.12,98.05,129.33,97.96z M129.23,97.4
			c-0.1,0.38-0.84,0.19-0.84-0.19C128.6,97.11,129.12,97.21,129.23,97.4z M128.39,99.18c-0.21,0-0.42-0.09-0.42-0.28
			C128.18,98.71,128.6,99.08,128.39,99.18z M128.07,97.77c0.21,0.38-0.42,0.47-0.52,0.19C127.55,97.77,127.97,97.58,128.07,97.77z
			 M193.99,95.43c0.21,0.09,0.52-0.09,0.31-0.19C194.2,95.33,193.99,95.33,193.99,95.43z M193.36,95.33c0.1,0,0.42,0.19,0.52,0
			C193.78,95.33,193.46,95.15,193.36,95.33z"/>
	</g>
</g>
</svg>
